# Blender v2.78 (sub 0) OBJ File: 'lil_ghost.blend'
# www.blender.org
mtllib lil_ghost.mtl
v 0.000000 0.382683 2.923880
v -0.000000 0.000000 3.000000
v 0.270598 0.270598 2.923880
v 0.500000 0.500000 2.707107
v 0.653281 0.653282 2.382684
v 0.707107 0.707107 2.000000
v 0.382683 0.000000 2.923880
v 0.707107 0.000000 2.707107
v 0.923879 0.000000 2.382684
v 1.000000 0.000000 2.000000
v 0.270598 -0.270598 2.923880
v 0.500000 -0.500000 2.707107
v 0.653281 -0.653281 2.382684
v 0.707107 -0.707106 2.000000
v 0.000000 -0.382683 2.923880
v 0.000000 -0.707106 2.707107
v 0.000000 -0.923879 2.382684
v 0.000000 -1.000000 2.000000
v -0.353553 0.853553 0.500000
v -0.853553 -0.353553 0.500000
v -0.353553 -0.853553 0.500000
v -0.270598 -0.270598 2.923880
v -0.500000 -0.500000 2.707107
v -0.653281 -0.653281 2.382684
v -0.707107 -0.707106 2.000000
v 0.853553 0.353553 0.500000
v 0.853553 -0.353553 0.500000
v 0.353553 -0.853553 0.500000
v -0.853553 0.353553 0.500000
v -0.382683 0.000000 2.923880
v -0.707107 0.000000 2.707107
v -0.923879 0.000000 2.382684
v -1.000000 0.000000 2.000000
v 0.353553 0.853553 0.500000
v 0.000000 1.000000 1.000000
v -0.707107 0.707107 1.000000
v -0.270598 0.270598 2.923880
v -0.500000 0.500000 2.707107
v -0.653281 0.653281 2.382684
v -0.707107 0.707107 2.000000
v -1.000000 0.000000 1.000000
v -0.707107 -0.707106 1.000000
v 0.000000 -1.000000 1.000000
v -0.000000 0.707107 2.707107
v -0.000000 0.923879 2.382684
v 0.000000 1.000000 2.000000
v 0.707107 -0.707106 1.000000
v 1.000000 0.000000 1.000000
v 0.707107 0.707107 1.000000
vn 0.3764 0.9087 0.1807
vn 0.2243 0.5414 0.8103
vn 0.3256 0.7862 0.5253
vn 0.0805 0.1945 0.9776
vn 0.7862 0.3256 0.5253
vn 0.1945 0.0805 0.9776
vn 0.9087 0.3764 0.1807
vn 0.5414 0.2243 0.8103
vn 0.7862 -0.3256 0.5253
vn 0.1945 -0.0805 0.9776
vn 0.9087 -0.3764 0.1807
vn 0.5414 -0.2243 0.8103
vn 0.3764 -0.9087 0.1807
vn 0.2243 -0.5414 0.8103
vn 0.3256 -0.7862 0.5253
vn 0.0805 -0.1945 0.9776
vn -0.3764 -0.9087 0.1807
vn -0.2243 -0.5414 0.8103
vn -0.3256 -0.7862 0.5253
vn -0.0805 -0.1945 0.9776
vn -0.7862 -0.3256 0.5253
vn -0.1945 -0.0805 0.9776
vn -0.9087 -0.3764 0.1807
vn -0.5414 -0.2243 0.8103
vn -0.7862 0.3256 0.5253
vn -0.1945 0.0805 0.9776
vn -0.9239 -0.3827 -0.0000
vn 0.9239 0.3827 0.0000
vn -0.9087 0.3764 0.1807
vn -0.5414 0.2243 0.8103
vn 0.3827 0.9239 -0.0000
vn 0.9239 -0.3827 0.0000
vn -0.9239 0.3827 -0.0000
vn 0.3827 -0.9239 0.0000
vn -0.3764 0.9087 0.1807
vn -0.2243 0.5414 0.8103
vn -0.3827 0.9239 0.0000
vn -0.3827 -0.9239 -0.0000
vn -0.3256 0.7862 0.5253
vn -0.0805 0.1945 0.9776
usemtl None
s off
f 46//1 5//1 6//1
f 1//2 4//2 44//2
f 44//3 5//3 45//3
f 1//4 2//4 3//4
f 4//5 9//5 5//5
f 3//6 2//6 7//6
f 6//7 9//7 10//7
f 3//8 8//8 4//8
f 8//9 13//9 9//9
f 7//10 2//10 11//10
f 9//11 14//11 10//11
f 7//12 12//12 8//12
f 14//13 17//13 18//13
f 11//14 16//14 12//14
f 12//15 17//15 13//15
f 11//16 2//16 15//16
f 17//17 25//17 18//17
f 15//18 23//18 16//18
f 16//19 24//19 17//19
f 15//20 2//20 22//20
f 23//21 32//21 24//21
f 22//22 2//22 30//22
f 25//23 32//23 33//23
f 22//24 31//24 23//24
f 31//25 39//25 32//25
f 30//26 2//26 37//26
f 41//27 20//27 42//27
f 48//28 26//28 49//28
f 33//29 39//29 40//29
f 30//30 38//30 31//30
f 49//31 34//31 35//31
f 47//32 27//32 48//32
f 36//33 29//33 41//33
f 43//34 28//34 47//34
f 40//35 45//35 46//35
f 38//36 1//36 44//36
f 35//37 19//37 36//37
f 42//38 21//38 43//38
f 38//39 45//39 39//39
f 37//40 2//40 1//40
f 46//1 45//1 5//1
f 1//2 3//2 4//2
f 44//3 4//3 5//3
f 4//5 8//5 9//5
f 6//7 5//7 9//7
f 3//8 7//8 8//8
f 8//9 12//9 13//9
f 9//11 13//11 14//11
f 7//12 11//12 12//12
f 14//13 13//13 17//13
f 11//14 15//14 16//14
f 12//15 16//15 17//15
f 17//17 24//17 25//17
f 15//18 22//18 23//18
f 16//19 23//19 24//19
f 23//21 31//21 32//21
f 25//23 24//23 32//23
f 22//24 30//24 31//24
f 31//25 38//25 39//25
f 42//27 25//27 33//27
f 33//27 41//27 42//27
f 49//28 6//28 10//28
f 10//28 48//28 49//28
f 33//29 32//29 39//29
f 30//30 37//30 38//30
f 35//31 46//31 6//31
f 6//31 49//31 35//31
f 48//32 10//32 14//32
f 14//32 47//32 48//32
f 41//33 33//33 40//33
f 40//33 36//33 41//33
f 47//34 14//34 18//34
f 18//34 43//34 47//34
f 40//35 39//35 45//35
f 38//36 37//36 1//36
f 36//37 40//37 46//37
f 46//37 35//37 36//37
f 43//38 18//38 25//38
f 25//38 42//38 43//38
f 38//39 44//39 45//39
