# Blender v2.78 (sub 0) OBJ File: 'bigOlBatBlend.blend'
# www.blender.org
mtllib bigOlBat_heroic.mtl
o Sphere
v 0.520346 -0.682567 4.002987
v 0.965421 -0.273592 3.981723
v 1.048363 0.173860 3.800002
v 0.520346 -0.862110 3.585873
v 0.915701 -0.690366 3.259260
v 1.060411 -0.390043 2.965773
v 0.740404 0.033125 2.691170
v 0.068546 0.573679 1.265493
v 0.420397 0.311313 2.046849
v 0.420397 0.550603 2.280376
v 0.740404 0.446403 3.094495
v 0.068546 0.606771 1.277214
v 1.186781 0.335206 3.890737
v 1.216740 0.273028 2.840326
v 1.179747 0.537539 2.962301
v 0.984836 0.544226 2.416250
v 0.996125 0.401739 2.303119
v 1.279838 0.187566 3.725773
v 1.203178 0.635512 2.124316
v 1.231336 0.474725 2.011184
v 1.549876 0.730883 4.234859
v 1.455909 0.880493 4.273129
v 1.627184 1.505257 2.746824
v 1.702087 1.385998 2.633692
v 1.682937 0.736551 4.423749
v 1.586534 0.890042 4.462018
v 2.565991 1.906519 2.763170
v 2.641970 1.785546 2.650038
v 1.701338 0.850892 4.648038
v 1.798732 0.695824 4.609768
v 2.859820 1.924924 2.646142
v 2.936110 1.803456 2.533011
v 1.763681 0.768610 4.754331
v 1.861634 0.612651 4.716061
v 3.034638 1.845664 3.077804
v 3.113765 1.719681 2.964672
v 2.305766 0.407483 5.033693
v 2.210999 0.558369 5.071963
v 4.691503 1.947588 3.604952
v 4.764786 1.830909 3.491820
v 3.691049 1.948249 3.435866
v 3.767501 1.826524 3.322734
v 2.019447 0.413099 4.981689
v 1.925426 0.562796 5.019959
v 0.000000 -0.592796 4.211544
v 0.000000 -0.223902 4.342955
v 0.000000 0.148584 4.217116
v 0.000000 -0.859255 3.858096
v -0.520346 -0.682567 4.002987
v -0.965421 -0.273592 3.981723
v -1.048363 0.173860 3.800002
v -0.520346 -0.862110 3.585873
v -0.915701 -0.690366 3.259260
v -1.060411 -0.390043 2.965773
v 0.000000 -0.951881 3.377316
v 0.000000 -0.845854 2.898028
v 0.000000 -0.569585 2.548659
v 0.000000 0.670248 2.397140
v 0.000000 0.653041 3.296157
v 0.000000 0.191668 1.930085
v 0.000000 -0.173513 2.489508
v -0.740404 0.033125 2.691170
v 0.000000 0.557133 1.259633
v -0.068546 0.573679 1.265493
v -0.420397 0.311313 2.046849
v -0.420397 0.550603 2.280376
v -0.740404 0.446403 3.094495
v -0.068546 0.606771 1.277214
v 0.000000 0.623317 1.283074
v -1.186781 0.335206 3.890737
v -1.216740 0.273028 2.840326
v -1.179747 0.537539 2.962301
v -0.984836 0.544226 2.416250
v -0.996125 0.401739 2.303119
v -1.279838 0.187566 3.725773
v -1.203178 0.635512 2.124316
v -1.231336 0.474725 2.011184
v -1.549876 0.730883 4.234859
v -1.455909 0.880493 4.273129
v -1.627184 1.505257 2.746824
v -1.702087 1.385998 2.633692
v -1.682937 0.736551 4.423749
v -1.586534 0.890042 4.462018
v -2.565991 1.906519 2.763170
v -2.641970 1.785546 2.650038
v -1.701338 0.850892 4.648038
v -1.798732 0.695824 4.609768
v -2.859820 1.924924 2.646142
v -2.936110 1.803456 2.533011
v -1.763681 0.768610 4.754331
v -1.861634 0.612651 4.716061
v -3.034638 1.845664 3.077804
v -3.113765 1.719681 2.964672
v -2.305766 0.407483 5.033693
v -2.210999 0.558369 5.071963
v -4.691503 1.947588 3.604952
v -4.764786 1.830909 3.491820
v -3.691049 1.948249 3.435866
v -3.767501 1.826524 3.322734
v -2.019447 0.413099 4.981689
v -1.925426 0.562796 5.019959
vt 0.1611 0.6034
vt 0.1882 0.5524
vt 0.2089 0.5492
vt 0.7924 0.5286
vt 0.7929 0.5291
vt 0.7930 0.5284
vt 0.1611 0.5837
vt 0.1611 0.5306
vt 0.1882 0.4898
vt 0.2089 0.4408
vt 0.2164 0.5219
vt 0.2164 0.3968
vt 0.1611 0.3866
vt 0.1611 0.3342
vt 0.1611 0.4585
vt 0.3419 0.3647
vt 0.3706 0.1693
vt 0.3706 0.3876
vt 0.7930 0.5277
vt 0.7932 0.5268
vt 0.7932 0.5284
vt 0.3201 0.5242
vt 0.3706 0.5637
vt 0.7822 0.4991
vt 0.7820 0.4975
vt 0.7822 0.4991
vt 0.6007 0.5549
vt 0.6134 0.4745
vt 0.6242 0.5508
vt 0.2983 0.6625
vt 0.3706 0.7442
vt 0.5656 0.4617
vt 0.5689 0.3498
vt 0.5855 0.4580
vt 0.7819 0.4976
vt 0.7820 0.4976
vt 0.7923 0.5272
vt 0.7929 0.5267
vt 0.5656 0.5614
vt 0.7827 0.5003
vt 0.7827 0.4990
vt 0.7825 0.4994
vt 0.7826 0.5022
vt 0.7829 0.5026
vt 0.7824 0.5004
vt 0.7932 0.5285
vt 0.7825 0.5021
vt 0.7825 0.4994
vt 0.7833 0.4999
vt 0.7827 0.4990
vt 0.7640 0.4867
vt 0.7965 0.3045
vt 0.8094 0.3968
vt 0.7787 0.3625
vt 0.7934 0.5291
vt 0.7833 0.4999
vt 0.7933 0.4988
vt 0.7936 0.4993
vt 0.7936 0.4991
vt 0.7839 0.5001
vt 0.7840 0.5001
vt 0.7840 0.5001
vt 0.8327 0.4565
vt 0.7604 0.5257
vt 0.7628 0.5068
vt 0.7839 0.5001
vt 0.7829 0.5028
vt 0.7830 0.5029
vt 0.7830 0.5035
vt 0.7830 0.5036
vt 0.7830 0.5033
vt 0.7841 0.5009
vt 0.7830 0.5031
vt 0.7844 0.5018
vt 0.7849 0.5027
vt 0.7849 0.5027
vt 0.8335 0.5104
vt 0.7579 0.5386
vt 0.7841 0.5010
vt 0.7831 0.5048
vt 0.7832 0.5046
vt 0.7844 0.5018
vt 0.7830 0.5045
vt 0.7830 0.5043
vt 0.8396 0.5738
vt 0.7550 0.5935
vt 0.7514 0.5697
vt 0.7830 0.5038
vt 0.1339 0.5524
vt 0.7929 0.5291
vt 0.7924 0.5293
vt 0.1132 0.5492
vt 0.1339 0.4898
vt 0.1057 0.5219
vt 0.1132 0.4408
vt 0.1057 0.3968
vt 0.3419 0.3647
vt 0.7930 0.5277
vt 0.7932 0.5268
vt 0.7929 0.5267
vt 0.3201 0.5242
vt 0.7820 0.4975
vt 0.7822 0.4991
vt 0.7822 0.4991
vt 0.6007 0.5549
vt 0.6134 0.4745
vt 0.5855 0.4580
vt 0.2983 0.6625
vt 0.5689 0.3498
vt 0.7820 0.4976
vt 0.7827 0.4990
vt 0.7827 0.5003
vt 0.7825 0.4994
vt 0.7829 0.5026
vt 0.7826 0.5022
vt 0.7824 0.5004
vt 0.7930 0.5284
vt 0.7932 0.5284
vt 0.7825 0.5021
vt 0.7825 0.4994
vt 0.7833 0.4999
vt 0.7827 0.4990
vt 0.7640 0.4867
vt 0.8094 0.3968
vt 0.7965 0.3045
vt 0.7787 0.3625
vt 0.7847 0.3091
vt 0.7934 0.5291
vt 0.7833 0.4999
vt 0.7933 0.4988
vt 0.7936 0.4993
vt 0.7933 0.4987
vt 0.7839 0.5001
vt 0.7840 0.5001
vt 0.7839 0.5001
vt 0.7604 0.5257
vt 0.8327 0.4565
vt 0.7628 0.5068
vt 0.7830 0.5029
vt 0.7829 0.5028
vt 0.7830 0.5036
vt 0.7830 0.5035
vt 0.7830 0.5033
vt 0.7841 0.5009
vt 0.7830 0.5031
vt 0.7844 0.5018
vt 0.7849 0.5027
vt 0.7844 0.5018
vt 0.8335 0.5104
vt 0.8405 0.4729
vt 0.7841 0.5010
vt 0.7840 0.5001
vt 0.7831 0.5048
vt 0.7832 0.5046
vt 0.7830 0.5043
vt 0.7830 0.5045
vt 0.7550 0.5935
vt 0.8396 0.5738
vt 0.7514 0.5697
vt 0.7579 0.5386
vt 0.7830 0.5038
vt 0.3659 0.1681
vt 0.5656 0.3513
vt 0.7819 0.4975
vt 0.7924 0.5266
vt 0.7847 0.3091
vt 0.7933 0.4987
vt 0.8405 0.4729
vt 0.8527 0.6552
vt 0.3659 0.1681
vt 0.6242 0.5508
vt 0.7932 0.5285
vt 0.7936 0.4991
vt 0.7849 0.5027
vt 0.8527 0.6552
vn 0.3204 -0.3020 0.8978
vn 0.3468 0.2970 0.8897
vn 0.1030 -0.7943 0.5988
vn 0.6079 -0.7052 0.3650
vn 0.9444 -0.2660 0.1934
vn 0.1978 -0.9004 0.3876
vn 0.3526 -0.7340 -0.5804
vn 0.0932 -0.9777 0.1884
vn 0.2421 -0.9482 -0.2056
vn 0.2631 0.9639 -0.0406
vn 0.9651 -0.2450 -0.0924
vn 0.2734 0.9617 0.0184
vn 0.9069 0.2943 -0.3016
vn 0.5088 -0.7662 -0.3925
vn 0.1676 0.8646 0.4736
vn 0.3565 -0.8254 -0.4377
vn -0.0000 0.3339 -0.9426
vn 0.3918 -0.2737 -0.8784
vn 0.3576 -0.7796 -0.5142
vn -0.2610 0.9596 0.1049
vn -0.9170 0.3883 0.0916
vn -0.0213 0.9906 0.1352
vn 0.2693 -0.6371 0.7222
vn -0.0741 0.9190 0.3873
vn 0.2045 0.6837 -0.7006
vn -0.0243 0.5724 -0.8196
vn 0.9073 -0.4124 -0.0825
vn 0.9092 -0.4080 -0.0832
vn -0.7826 0.2607 -0.5653
vn 0.9254 -0.3651 -0.1012
vn -0.9139 0.4013 0.0617
vn -0.3341 -0.4250 0.8413
vn -0.3437 0.5153 -0.7851
vn 0.2833 -0.8848 -0.3701
vn -0.3777 0.8710 0.3141
vn -0.6739 -0.5496 0.4938
vn 0.4291 -0.8599 -0.2765
vn -0.2338 0.5817 -0.7791
vn -0.8368 -0.5430 0.0705
vn -0.3226 0.8992 0.2957
vn 0.1624 0.8273 0.5378
vn -0.7529 -0.5593 0.3469
vn 0.1117 0.7270 -0.6775
vn -0.0932 -0.8102 -0.5788
vn 0.7466 0.6395 -0.1832
vn 0.4755 0.0764 0.8764
vn -0.0993 0.8009 0.5905
vn -0.1733 -0.3447 0.9226
vn 0.0911 -0.8034 -0.5885
vn 0.0480 -0.7847 -0.6180
vn -0.8341 -0.5449 0.0857
vn -0.3186 0.8888 0.3295
vn 0.2347 0.7269 -0.6454
vn -0.3045 -0.3196 0.8973
vn -0.3478 0.3001 0.8882
vn -0.1030 -0.7943 0.5988
vn -0.6533 -0.6954 0.2993
vn -0.9849 -0.1702 0.0304
vn -0.1978 -0.9004 0.3876
vn -0.3530 -0.7354 -0.5784
vn -0.0932 -0.9777 0.1884
vn -0.2421 -0.9482 -0.2056
vn -0.2631 0.9639 -0.0406
vn -0.4059 -0.2614 -0.8758
vn -0.2734 0.9617 0.0184
vn -0.9069 0.2943 -0.3016
vn -0.3513 -0.7834 -0.5127
vn -0.1676 0.8646 0.4736
vn -0.3565 -0.8254 -0.4377
vn -0.3918 -0.2737 -0.8784
vn -0.3576 -0.7796 -0.5142
vn 0.2610 0.9596 0.1049
vn 0.9170 0.3883 0.0916
vn 0.0213 0.9906 0.1352
vn -0.2235 -0.8060 0.5481
vn 0.0741 0.9190 0.3873
vn -0.2045 0.6837 -0.7006
vn 0.0243 0.5724 -0.8196
vn -0.9073 -0.4124 -0.0825
vn -0.0083 -0.9717 -0.2362
vn 0.8024 0.3308 -0.4967
vn -0.9254 -0.3651 -0.1012
vn 0.9139 0.4013 0.0617
vn -0.1115 -0.7084 0.6969
vn 0.3445 0.5166 -0.7838
vn -0.2833 -0.8848 -0.3701
vn 0.3777 0.8710 0.3141
vn 0.6739 -0.5496 0.4938
vn -0.3753 -0.8698 -0.3202
vn 0.2370 0.5861 -0.7748
vn 0.8368 -0.5430 0.0705
vn 0.3226 0.8992 0.2957
vn 0.2878 0.8858 0.3641
vn 0.7529 -0.5593 0.3469
vn -0.1170 0.7145 -0.6897
vn -0.3176 -0.8979 -0.3050
vn -0.7466 0.6395 -0.1832
vn -0.4755 0.0764 0.8764
vn 0.0956 0.7996 0.5928
vn 0.1733 -0.3447 0.9226
vn -0.0911 -0.8034 -0.5885
vn -0.3248 -0.8869 -0.3284
vn 0.8341 -0.5449 0.0857
vn 0.3186 0.8888 0.3295
vn -0.2347 0.7269 -0.6454
vn 0.3045 -0.3196 0.8973
vn 0.3478 0.3001 0.8882
vn 0.6533 -0.6954 0.2993
vn 0.9849 -0.1702 0.0304
vn 0.3530 -0.7354 -0.5784
vn 0.2471 -0.9461 -0.2093
vn 0.2324 0.9722 -0.0271
vn 0.4059 -0.2614 -0.8758
vn 0.2773 0.9607 0.0140
vn 0.9197 0.1311 -0.3701
vn 0.3513 -0.7834 -0.5127
vn 0.3170 0.9230 0.2182
vn 0.2451 -0.8512 -0.4640
vn 0.2966 -0.1411 -0.9445
vn 0.3635 -0.7801 -0.5092
vn -0.8453 0.5329 0.0387
vn -0.1804 0.9806 0.0764
vn 0.2235 -0.8060 0.5481
vn -0.7885 0.5996 0.1367
vn 0.1903 0.6197 -0.7615
vn -0.1596 0.6248 -0.7643
vn 0.0083 -0.9717 -0.2362
vn -0.8024 0.3308 -0.4967
vn 0.1115 -0.7084 0.6969
vn -0.3445 0.5166 -0.7838
vn -0.1609 -0.8316 -0.5316
vn -0.4398 0.8594 0.2607
vn -0.6762 -0.5476 0.4928
vn 0.3753 -0.8698 -0.3202
vn -0.2370 0.5861 -0.7748
vn -0.8368 -0.5429 0.0704
vn 0.0794 0.8103 0.5807
vn -0.2878 0.8858 0.3641
vn -0.7534 -0.5587 0.3467
vn 0.1170 0.7145 -0.6897
vn 0.3176 -0.8979 -0.3050
vn 0.7481 0.6369 -0.1860
vn 0.6260 -0.3033 0.7184
vn -0.0956 0.7996 0.5928
vn -0.1743 -0.3436 0.9228
vn 0.1022 -0.8068 -0.5819
vn 0.3248 -0.8869 -0.3284
vn -0.8337 -0.5455 0.0855
vn -0.0449 0.7763 0.6288
vn 0.2317 0.7363 -0.6357
vn -0.3204 -0.3020 0.8978
vn -0.3468 0.2970 0.8897
vn -0.6079 -0.7052 0.3650
vn -0.9444 -0.2660 0.1934
vn -0.3526 -0.7340 -0.5804
vn -0.2471 -0.9461 -0.2093
vn -0.2324 0.9722 -0.0271
vn -0.9651 -0.2450 -0.0924
vn -0.2773 0.9607 0.0140
vn -0.9197 0.1311 -0.3701
vn -0.5088 -0.7662 -0.3925
vn -0.3170 0.9230 0.2182
vn -0.2451 -0.8512 -0.4640
vn -0.2966 -0.1411 -0.9445
vn -0.3635 -0.7801 -0.5092
vn 0.8453 0.5329 0.0387
vn 0.1804 0.9806 0.0764
vn -0.2693 -0.6371 0.7222
vn 0.7885 0.5996 0.1367
vn -0.1903 0.6197 -0.7615
vn 0.1596 0.6248 -0.7643
vn -0.9092 -0.4080 -0.0832
vn 0.7826 0.2607 -0.5653
vn 0.3341 -0.4250 0.8413
vn 0.3437 0.5153 -0.7851
vn 0.1609 -0.8316 -0.5316
vn 0.4398 0.8594 0.2607
vn 0.6762 -0.5476 0.4928
vn -0.4291 -0.8599 -0.2765
vn 0.2338 0.5817 -0.7791
vn 0.8368 -0.5429 0.0704
vn -0.0794 0.8103 0.5807
vn -0.1624 0.8273 0.5378
vn 0.7534 -0.5587 0.3467
vn -0.1117 0.7270 -0.6775
vn 0.0932 -0.8102 -0.5788
vn -0.7481 0.6369 -0.1860
vn -0.6260 -0.3033 0.7184
vn 0.0993 0.8009 0.5905
vn 0.1743 -0.3436 0.9228
vn -0.1022 -0.8068 -0.5819
vn -0.0480 -0.7847 -0.6180
vn 0.8337 -0.5455 0.0855
vn 0.0449 0.7763 0.6288
vn -0.2317 0.7363 -0.6357
usemtl Material
s off
f 46/1/1 1/2/1 2/3/1
f 47/4/2 2/5/2 3/6/2
f 45/7/3 48/8/3 1/2/3
f 2/3/4 4/9/4 5/10/4
f 3/11/5 5/10/5 6/12/5
f 1/2/6 48/8/6 4/9/6
f 6/12/7 56/13/7 57/14/7
f 4/9/8 48/8/8 55/15/8
f 4/9/9 56/13/9 5/10/9
f 10/16/10 69/17/10 58/18/10
f 6/19/11 14/20/11 18/21/11
f 11/22/12 58/18/12 59/23/12
f 9/24/13 12/25/13 10/26/13
f 7/27/14 17/28/14 14/29/14
f 3/30/15 59/23/15 47/31/15
f 60/32/16 8/33/16 9/34/16
f 63/35/17 12/25/17 8/36/17
f 57/37/18 7/38/18 6/19/18
f 61/39/19 9/34/19 7/27/19
f 15/40/20 19/41/20 16/42/20
f 15/40/21 13/43/21 22/44/21
f 11/45/22 16/42/22 10/26/22
f 3/6/23 18/21/23 13/46/23
f 3/47/24 15/40/24 11/45/24
f 10/26/25 17/48/25 9/24/25
f 19/41/26 24/49/26 20/50/26
f 21/51/27 20/52/27 24/53/27
f 14/54/28 20/52/28 21/51/28
f 17/48/29 19/41/29 20/50/29
f 18/21/30 14/20/30 21/55/30
f 19/41/31 22/44/31 23/56/31
f 13/57/32 21/58/32 22/59/32
f 28/60/33 31/61/33 32/62/33
f 28/63/34 30/64/34 25/65/34
f 22/44/35 27/66/35 23/56/35
f 21/67/36 26/68/36 22/44/36
f 21/51/37 28/63/37 25/65/37
f 24/49/38 27/66/38 28/60/38
f 30/69/39 33/70/39 29/71/39
f 29/71/40 35/72/40 31/61/40
f 27/66/41 29/71/41 31/61/41
f 25/73/42 29/71/42 26/68/42
f 42/74/43 39/75/43 40/76/43
f 30/64/44 36/77/44 34/78/44
f 31/61/45 36/79/45 32/62/45
f 37/80/46 39/75/46 38/81/46
f 41/82/47 38/81/47 39/75/47
f 43/83/48 38/81/48 44/84/48
f 42/85/49 37/86/49 43/87/49
f 34/78/50 42/85/50 43/87/50
f 34/88/51 44/84/51 33/70/51
f 33/70/52 41/82/52 35/72/52
f 35/72/53 42/74/53 36/79/53
f 46/1/54 49/89/54 45/7/54
f 47/4/55 50/90/55 46/91/55
f 45/7/56 49/89/56 48/8/56
f 50/92/57 52/93/57 49/89/57
f 51/94/58 53/95/58 50/92/58
f 49/89/59 52/93/59 48/8/59
f 54/96/60 56/13/60 53/95/60
f 52/93/61 55/15/61 48/8/61
f 56/13/62 52/93/62 53/95/62
f 69/17/63 66/97/63 58/18/63
f 54/98/64 71/99/64 62/100/64
f 58/18/65 67/101/65 59/23/65
f 68/102/66 65/103/66 66/104/66
f 62/105/67 74/106/67 65/107/67
f 59/23/68 51/108/68 47/31/68
f 64/109/69 60/32/69 65/107/69
f 68/102/17 63/35/17 64/110/17
f 62/100/70 57/37/70 54/98/70
f 65/107/71 61/39/71 62/105/71
f 76/111/72 72/112/72 73/113/72
f 72/112/73 79/114/73 70/115/73
f 73/113/74 67/116/74 66/104/74
f 51/117/75 75/118/75 54/98/75
f 72/112/76 51/119/76 67/116/76
f 74/120/77 66/104/77 65/103/77
f 81/121/78 76/111/78 77/122/78
f 78/123/79 81/124/79 77/125/79
f 71/126/80 77/125/80 74/127/80
f 74/120/81 76/111/81 73/113/81
f 75/118/82 78/128/82 71/99/82
f 76/111/83 80/129/83 79/114/83
f 70/130/84 78/131/84 75/132/84
f 85/133/85 88/134/85 84/135/85
f 87/136/86 85/137/86 82/138/86
f 84/135/87 79/114/87 80/129/87
f 83/139/88 78/140/88 79/114/88
f 78/123/89 85/137/89 81/124/89
f 81/121/90 84/135/90 80/129/90
f 90/141/91 87/142/91 86/143/91
f 92/144/92 86/143/92 88/134/92
f 84/135/93 86/143/93 83/139/93
f 86/143/94 82/145/94 83/139/94
f 99/146/95 96/147/95 98/148/95
f 87/136/96 93/149/96 89/150/96
f 93/151/97 88/134/97 89/152/97
f 96/147/98 94/153/98 95/154/98
f 98/148/99 95/154/99 101/155/99
f 95/154/100 100/156/100 101/155/100
f 94/157/101 99/158/101 100/159/101
f 91/160/102 99/158/102 93/149/102
f 101/155/103 91/161/103 90/141/103
f 98/148/104 90/141/104 92/144/104
f 99/146/105 92/144/105 93/151/105
f 46/1/106 45/7/106 1/2/106
f 47/4/107 46/91/107 2/5/107
f 2/3/108 1/2/108 4/9/108
f 3/11/109 2/3/109 5/10/109
f 6/12/110 5/10/110 56/13/110
f 4/9/111 55/15/111 56/13/111
f 10/16/112 12/162/112 69/17/112
f 6/19/113 7/38/113 14/20/113
f 11/22/114 10/16/114 58/18/114
f 9/24/115 8/36/115 12/25/115
f 7/27/116 9/34/116 17/28/116
f 3/30/117 11/22/117 59/23/117
f 60/32/118 63/163/118 8/33/118
f 63/35/17 69/164/17 12/25/17
f 57/37/119 61/165/119 7/38/119
f 61/39/120 60/32/120 9/34/120
f 15/40/121 22/44/121 19/41/121
f 11/45/122 15/40/122 16/42/122
f 3/6/123 6/19/123 18/21/123
f 3/47/124 13/43/124 15/40/124
f 10/26/125 16/42/125 17/48/125
f 19/41/126 23/56/126 24/49/126
f 14/54/127 17/166/127 20/52/127
f 17/48/128 16/42/128 19/41/128
f 13/57/129 18/167/129 21/58/129
f 28/60/130 27/66/130 31/61/130
f 28/63/131 32/168/131 30/64/131
f 22/44/132 26/68/132 27/66/132
f 21/67/133 25/73/133 26/68/133
f 21/51/134 24/53/134 28/63/134
f 24/49/135 23/56/135 27/66/135
f 30/69/136 34/88/136 33/70/136
f 29/71/137 33/70/137 35/72/137
f 27/66/138 26/68/138 29/71/138
f 25/73/139 30/69/139 29/71/139
f 42/74/140 41/82/140 39/75/140
f 30/64/141 32/168/141 36/77/141
f 31/61/142 35/72/142 36/79/142
f 37/80/143 40/76/143 39/75/143
f 41/82/144 44/84/144 38/81/144
f 43/83/145 37/80/145 38/81/145
f 42/85/146 40/169/146 37/86/146
f 34/78/147 36/77/147 42/85/147
f 34/88/148 43/83/148 44/84/148
f 33/70/149 44/84/149 41/82/149
f 35/72/150 41/82/150 42/74/150
f 46/1/151 50/92/151 49/89/151
f 47/4/152 51/117/152 50/90/152
f 50/92/153 53/95/153 52/93/153
f 51/94/154 54/96/154 53/95/154
f 54/96/155 57/14/155 56/13/155
f 56/13/156 55/15/156 52/93/156
f 69/17/157 68/170/157 66/97/157
f 54/98/158 75/118/158 71/99/158
f 58/18/159 66/97/159 67/101/159
f 68/102/160 64/110/160 65/103/160
f 62/105/161 71/171/161 74/106/161
f 59/23/162 67/101/162 51/108/162
f 64/109/163 63/163/163 60/32/163
f 68/102/17 69/164/17 63/35/17
f 62/100/164 61/165/164 57/37/164
f 65/107/165 60/32/165 61/39/165
f 76/111/166 79/114/166 72/112/166
f 73/113/167 72/112/167 67/116/167
f 51/117/168 70/172/168 75/118/168
f 72/112/169 70/115/169 51/119/169
f 74/120/170 73/113/170 66/104/170
f 81/121/171 80/129/171 76/111/171
f 71/126/172 78/123/172 77/125/172
f 74/120/173 77/122/173 76/111/173
f 70/130/174 79/173/174 78/131/174
f 85/133/175 89/152/175 88/134/175
f 87/136/176 89/150/176 85/137/176
f 84/135/177 83/139/177 79/114/177
f 83/139/178 82/145/178 78/140/178
f 78/123/179 82/138/179 85/137/179
f 81/121/180 85/133/180 84/135/180
f 90/141/181 91/161/181 87/142/181
f 92/144/182 90/141/182 86/143/182
f 84/135/183 88/134/183 86/143/183
f 86/143/184 87/142/184 82/145/184
f 99/146/185 97/174/185 96/147/185
f 87/136/186 91/160/186 93/149/186
f 93/151/187 92/144/187 88/134/187
f 96/147/188 97/174/188 94/153/188
f 98/148/189 96/147/189 95/154/189
f 95/154/190 94/153/190 100/156/190
f 94/157/191 97/175/191 99/158/191
f 91/160/192 100/159/192 99/158/192
f 101/155/193 100/156/193 91/161/193
f 98/148/194 101/155/194 90/141/194
f 99/146/195 98/148/195 92/144/195
