# Blender v2.78 (sub 0) OBJ File: 'bigOlBatBlend.blend'
# www.blender.org
mtllib bigOlBat.mtl
o Sphere
v 0.520346 -0.890414 2.802987
v 0.915701 -0.494916 2.781723
v 1.060411 -0.040386 2.600002
v 0.520346 -1.124628 2.385873
v 0.915701 -0.900587 2.059260
v 1.060411 -0.508814 1.765773
v 0.740404 0.043212 1.491170
v 0.068546 0.748368 0.065493
v 0.420397 0.406109 0.846849
v 0.420397 0.718265 1.080376
v 0.740404 0.582335 1.894495
v 0.068546 0.791537 0.077214
v 1.232726 -0.007337 2.690737
v 1.238040 0.234992 1.640326
v 1.238040 0.550018 1.762301
v 1.009265 0.663302 1.216250
v 1.009265 0.489900 1.103119
v 1.279633 -0.153463 2.525773
v 1.263559 0.699331 0.924315
v 1.263559 0.525929 0.811184
v 1.714475 0.009384 3.034859
v 1.714475 0.231727 3.073129
v 2.195529 0.858081 1.546824
v 2.195529 0.680845 1.433692
v 1.831072 -0.055423 3.223749
v 1.831072 0.172687 3.262018
v 3.211817 0.816112 1.563170
v 3.211817 0.636329 1.450038
v 1.908064 0.066148 3.448038
v 1.908064 -0.164306 3.409768
v 3.472445 0.679771 1.446143
v 3.472445 0.499253 1.333011
v 1.917164 -0.061852 3.554331
v 1.917164 -0.293630 3.516061
v 3.579155 0.494957 1.877803
v 3.579155 0.307728 1.764672
v 2.186227 -0.767529 3.833693
v 2.186227 -0.543291 3.871963
v 5.047805 -0.275988 2.404952
v 5.047805 -0.449390 2.291820
v 4.194343 0.261031 2.235866
v 4.194343 0.080130 2.122734
v 1.944883 -0.607603 3.781689
v 1.944883 -0.385131 3.819959
v 0.000000 -0.773307 3.011544
v 0.000000 -0.292082 3.142955
v 0.000000 0.193828 3.017116
v 0.000000 -1.120904 2.658096
v -0.520346 -0.890414 2.802987
v -0.915701 -0.494916 2.781723
v -1.060411 -0.040386 2.600002
v -0.520346 -1.124628 2.385873
v -0.915701 -0.900587 2.059260
v -1.060411 -0.508814 1.765773
v 0.000000 -1.241734 2.177315
v 0.000000 -1.103422 1.698028
v 0.000000 -0.743027 1.348659
v 0.000000 0.874343 1.197140
v 0.000000 0.851897 2.096157
v 0.000000 0.250032 0.730085
v 0.000000 -0.226349 1.289508
v -0.740404 0.043212 1.491170
v 0.000000 0.726783 0.059632
v -0.068546 0.748368 0.065493
v -0.420397 0.406109 0.846849
v -0.420397 0.718265 1.080376
v -0.740404 0.582335 1.894495
v -0.068546 0.791537 0.077214
v 0.000000 0.813122 0.083074
v -1.232726 -0.007337 2.690737
v -1.238040 0.234992 1.640326
v -1.238040 0.550018 1.762301
v -1.009265 0.663302 1.216250
v -1.009265 0.489900 1.103119
v -1.279633 -0.153463 2.525773
v -1.263559 0.699331 0.924315
v -1.263559 0.525929 0.811184
v -1.714475 0.009384 3.034859
v -1.714475 0.231727 3.073129
v -2.195529 0.858081 1.546824
v -2.195529 0.680845 1.433692
v -1.831072 -0.055423 3.223749
v -1.831072 0.172687 3.262018
v -3.211817 0.816112 1.563170
v -3.211817 0.636329 1.450038
v -1.908064 0.066148 3.448038
v -1.908064 -0.164306 3.409768
v -3.472445 0.679771 1.446143
v -3.472445 0.499253 1.333011
v -1.917164 -0.061852 3.554331
v -1.917164 -0.293630 3.516061
v -3.579155 0.494957 1.877803
v -3.579155 0.307728 1.764672
v -2.186227 -0.767529 3.833693
v -2.186227 -0.543291 3.871963
v -5.047805 -0.275988 2.404952
v -5.047805 -0.449390 2.291820
v -4.194343 0.261031 2.235866
v -4.194343 0.080130 2.122734
v -1.944883 -0.607603 3.781689
v -1.944883 -0.385131 3.819959
vt 0.1611 0.6034
vt 0.1882 0.5524
vt 0.2089 0.5492
vt 0.7924 0.5286
vt 0.7929 0.5291
vt 0.7930 0.5284
vt 0.1611 0.5837
vt 0.1611 0.5306
vt 0.2089 0.4408
vt 0.2164 0.3968
vt 0.2164 0.5219
vt 0.1882 0.4898
vt 0.1611 0.3342
vt 0.1611 0.4585
vt 0.1611 0.3866
vt 0.3419 0.3647
vt 0.3706 0.1693
vt 0.3706 0.3876
vt 0.7930 0.5277
vt 0.7932 0.5268
vt 0.7932 0.5284
vt 0.3201 0.5242
vt 0.3706 0.5637
vt 0.7822 0.4991
vt 0.7820 0.4975
vt 0.7822 0.4991
vt 0.6007 0.5549
vt 0.6134 0.4745
vt 0.6242 0.5508
vt 0.3706 0.7442
vt 0.5656 0.4617
vt 0.5689 0.3498
vt 0.5855 0.4580
vt 0.7819 0.4976
vt 0.7820 0.4976
vt 0.7923 0.5272
vt 0.7929 0.5267
vt 0.5656 0.5614
vt 0.7827 0.5003
vt 0.7827 0.4990
vt 0.7825 0.4994
vt 0.7826 0.5022
vt 0.7829 0.5026
vt 0.7824 0.5004
vt 0.7932 0.5285
vt 0.7825 0.5021
vt 0.7825 0.4994
vt 0.7833 0.4999
vt 0.7827 0.4990
vt 0.7640 0.4867
vt 0.7965 0.3045
vt 0.8094 0.3968
vt 0.7787 0.3625
vt 0.7934 0.5291
vt 0.7833 0.4999
vt 0.7933 0.4988
vt 0.7936 0.4993
vt 0.7936 0.4991
vt 0.7839 0.5001
vt 0.7840 0.5001
vt 0.7840 0.5001
vt 0.8327 0.4565
vt 0.7604 0.5257
vt 0.7628 0.5068
vt 0.7839 0.5001
vt 0.7829 0.5028
vt 0.7830 0.5029
vt 0.7830 0.5035
vt 0.7830 0.5036
vt 0.7830 0.5033
vt 0.7841 0.5009
vt 0.7830 0.5031
vt 0.7844 0.5018
vt 0.7849 0.5027
vt 0.7849 0.5027
vt 0.8335 0.5104
vt 0.7579 0.5386
vt 0.7841 0.5010
vt 0.7831 0.5048
vt 0.7832 0.5046
vt 0.7844 0.5018
vt 0.7830 0.5045
vt 0.7830 0.5043
vt 0.8396 0.5738
vt 0.7550 0.5935
vt 0.7514 0.5697
vt 0.7830 0.5038
vt 0.1339 0.5524
vt 0.7929 0.5291
vt 0.7924 0.5293
vt 0.1132 0.4408
vt 0.1132 0.5492
vt 0.1057 0.3968
vt 0.1057 0.5219
vt 0.1339 0.4898
vt 0.3419 0.3647
vt 0.7930 0.5277
vt 0.7932 0.5268
vt 0.7929 0.5267
vt 0.3201 0.5242
vt 0.7820 0.4975
vt 0.7822 0.4991
vt 0.7822 0.4991
vt 0.6007 0.5549
vt 0.6134 0.4745
vt 0.5855 0.4580
vt 0.2983 0.6625
vt 0.5689 0.3498
vt 0.7820 0.4976
vt 0.7827 0.4990
vt 0.7827 0.5003
vt 0.7825 0.4994
vt 0.7829 0.5026
vt 0.7826 0.5022
vt 0.7824 0.5004
vt 0.7930 0.5284
vt 0.7932 0.5284
vt 0.7825 0.5021
vt 0.7825 0.4994
vt 0.7833 0.4999
vt 0.7827 0.4990
vt 0.7640 0.4867
vt 0.8094 0.3968
vt 0.7965 0.3045
vt 0.7787 0.3625
vt 0.7847 0.3091
vt 0.7934 0.5291
vt 0.7833 0.4999
vt 0.7933 0.4988
vt 0.7936 0.4993
vt 0.7933 0.4987
vt 0.7839 0.5001
vt 0.7840 0.5001
vt 0.7839 0.5001
vt 0.7604 0.5257
vt 0.8327 0.4565
vt 0.7628 0.5068
vt 0.7830 0.5029
vt 0.7829 0.5028
vt 0.7830 0.5036
vt 0.7830 0.5035
vt 0.7830 0.5033
vt 0.7841 0.5009
vt 0.7830 0.5031
vt 0.7844 0.5018
vt 0.7849 0.5027
vt 0.7844 0.5018
vt 0.8335 0.5104
vt 0.8405 0.4729
vt 0.7841 0.5010
vt 0.7840 0.5001
vt 0.7831 0.5048
vt 0.7832 0.5046
vt 0.7830 0.5043
vt 0.7830 0.5045
vt 0.7550 0.5935
vt 0.8396 0.5738
vt 0.7514 0.5697
vt 0.7579 0.5386
vt 0.7830 0.5038
vt 0.3659 0.1681
vt 0.2983 0.6625
vt 0.5656 0.3513
vt 0.7819 0.4975
vt 0.7924 0.5266
vt 0.7847 0.3091
vt 0.7933 0.4987
vt 0.8405 0.4729
vt 0.8527 0.6552
vt 0.3659 0.1681
vt 0.6242 0.5508
vt 0.7932 0.5285
vt 0.7936 0.4991
vt 0.7849 0.5027
vt 0.8527 0.6552
vn 0.3052 -0.2558 0.9173
vn 0.3996 0.2278 0.8879
vn 0.1197 -0.7079 0.6961
vn 0.6684 -0.6486 0.3642
vn 0.9583 -0.2492 0.1399
vn 0.2424 -0.8459 0.4750
vn 0.3996 -0.6396 -0.6567
vn 0.1197 -0.9629 0.2420
vn 0.3052 -0.9164 -0.2591
vn 0.3349 0.9408 -0.0517
vn 0.9544 -0.2543 -0.1564
vn 0.3476 0.9373 0.0234
vn 0.9235 0.2298 -0.3071
vn 0.4386 -0.7251 -0.5309
vn 0.4138 0.7407 0.5293
vn 0.4204 -0.7462 -0.5162
vn -0.0000 0.2620 -0.9651
vn 0.3980 -0.2131 -0.8923
vn 0.4131 -0.6903 -0.5940
vn 0.0640 0.9821 0.1769
vn -0.6397 0.6606 0.3929
vn 0.0596 0.9881 0.1416
vn -0.1818 -0.7612 0.6225
vn 0.2080 0.7782 0.5926
vn 0.2546 0.5793 -0.7743
vn 0.4243 0.4948 -0.7584
vn 0.3348 -0.9006 -0.2771
vn 0.4338 -0.8543 -0.2864
vn -0.7205 0.3789 -0.5808
vn 0.6460 -0.6874 -0.3319
vn -0.3322 0.9048 0.2666
vn -0.5724 -0.1391 0.8081
vn -0.1007 0.5283 -0.8430
vn -0.1440 -0.8789 -0.4548
vn 0.0318 0.9211 0.3880
vn -0.8596 -0.0867 0.5035
vn 0.0316 -0.9393 -0.3417
vn 0.0369 0.5322 -0.8458
vn -0.9974 -0.0118 0.0712
vn 0.1092 0.9233 0.3683
vn 0.5646 0.5547 0.6112
vn -0.9339 -0.0592 0.3526
vn 0.4507 0.4878 -0.7476
vn -0.4856 -0.5752 -0.6583
vn 0.9749 0.1182 -0.1886
vn 0.4621 -0.1492 0.8742
vn 0.2873 0.6717 0.6829
vn -0.3078 -0.1613 0.9377
vn -0.2972 -0.6697 -0.6806
vn -0.3293 -0.6266 -0.7063
vn -0.9961 -0.0143 0.0866
vn 0.1075 0.9068 0.4077
vn 0.5677 0.4365 -0.6980
vn -0.3111 -0.2504 0.9168
vn -0.4008 0.2297 0.8869
vn -0.1197 -0.7079 0.6961
vn -0.6684 -0.6486 0.3642
vn -0.9583 -0.2492 0.1399
vn -0.2424 -0.8459 0.4750
vn -0.3996 -0.6396 -0.6567
vn -0.1197 -0.9629 0.2420
vn -0.3052 -0.9164 -0.2591
vn -0.3349 0.9408 -0.0517
vn -0.3620 -0.2384 -0.9012
vn -0.3476 0.9373 0.0234
vn -0.9235 0.2298 -0.3071
vn -0.3587 -0.7258 -0.5870
vn -0.3727 0.7731 0.5133
vn -0.4204 -0.7462 -0.5162
vn -0.3980 -0.2131 -0.8923
vn -0.4131 -0.6903 -0.5940
vn -0.0640 0.9821 0.1769
vn 0.6397 0.6606 0.3929
vn -0.0596 0.9881 0.1416
vn 0.2732 -0.8388 0.4710
vn -0.2080 0.7782 0.5926
vn -0.2546 0.5793 -0.7743
vn -0.4243 0.4948 -0.7584
vn -0.3348 -0.9006 -0.2771
vn 0.2469 -0.9120 -0.3276
vn 0.7205 0.3789 -0.5808
vn -0.6460 -0.6874 -0.3319
vn 0.3322 0.9048 0.2666
vn 0.3704 -0.7451 0.5547
vn 0.1009 0.5299 -0.8420
vn 0.1440 -0.8789 -0.4548
vn -0.0318 0.9211 0.3880
vn 0.8596 -0.0867 0.5035
vn 0.0339 -0.9180 -0.3951
vn -0.0358 0.5377 -0.8424
vn 0.9974 -0.0118 0.0712
vn -0.1092 0.9233 0.3683
vn -0.1397 0.8831 0.4480
vn 0.9339 -0.0592 0.3526
vn -0.4484 0.4739 -0.7579
vn 0.1140 -0.9182 -0.3792
vn -0.9749 0.1182 -0.1886
vn -0.4621 -0.1492 0.8742
vn -0.2904 0.6683 0.6849
vn 0.3078 -0.1613 0.9377
vn 0.2972 -0.6697 -0.6806
vn 0.0995 -0.9083 -0.4063
vn 0.9961 -0.0143 0.0866
vn -0.1075 0.9068 0.4077
vn -0.5706 0.4247 -0.7029
vn 0.3111 -0.2504 0.9168
vn 0.4008 0.2297 0.8869
vn 0.4008 -0.6377 -0.6578
vn 0.3111 -0.9131 -0.2635
vn 0.2975 0.9541 -0.0346
vn 0.3620 -0.2384 -0.9012
vn 0.3523 0.9357 0.0177
vn 0.9230 0.1009 -0.3714
vn 0.3587 -0.7258 -0.5870
vn 0.3727 0.7731 0.5133
vn 0.2928 -0.7793 -0.5541
vn 0.2978 -0.1086 -0.9484
vn 0.4200 -0.6910 -0.5884
vn 0.1593 0.9711 0.1779
vn 0.1060 0.9815 0.1592
vn -0.2732 -0.8388 0.4710
vn -0.3987 0.7873 0.4703
vn 0.2373 0.5308 -0.8136
vn 0.4264 0.4867 -0.7625
vn -0.2469 -0.9120 -0.3276
vn -0.3704 -0.7451 0.5547
vn -0.1009 0.5299 -0.8420
vn -0.5661 -0.5596 -0.6053
vn -0.0438 0.9455 0.3226
vn -0.8606 -0.0843 0.5023
vn -0.0339 -0.9180 -0.3951
vn 0.0358 0.5377 -0.8424
vn -0.9974 -0.0117 0.0711
vn 0.4720 0.5828 0.6615
vn 0.1397 0.8831 0.4480
vn -0.9340 -0.0585 0.3523
vn 0.4484 0.4739 -0.7579
vn -0.1140 -0.9182 -0.3792
vn 0.9747 0.1157 -0.1914
vn 0.4558 -0.4864 0.7455
vn 0.2904 0.6683 0.6849
vn -0.3081 -0.1600 0.9378
vn -0.2880 -0.6796 -0.6747
vn -0.0995 -0.9083 -0.4063
vn -0.9962 -0.0149 0.0864
vn 0.3272 0.6165 0.7161
vn 0.5706 0.4247 -0.7029
vn -0.3052 -0.2558 0.9173
vn -0.3996 0.2278 0.8879
vn -0.4008 -0.6377 -0.6578
vn -0.3111 -0.9131 -0.2635
vn -0.2975 0.9541 -0.0346
vn -0.9544 -0.2543 -0.1564
vn -0.3523 0.9357 0.0177
vn -0.9230 0.1009 -0.3714
vn -0.4386 -0.7251 -0.5309
vn -0.4138 0.7407 0.5293
vn -0.2928 -0.7793 -0.5541
vn -0.2978 -0.1086 -0.9484
vn -0.4200 -0.6910 -0.5884
vn -0.1593 0.9711 0.1779
vn -0.1060 0.9815 0.1592
vn 0.1818 -0.7612 0.6225
vn 0.3987 0.7873 0.4703
vn -0.2373 0.5308 -0.8136
vn -0.4264 0.4867 -0.7625
vn -0.4338 -0.8543 -0.2864
vn 0.5724 -0.1391 0.8081
vn 0.1007 0.5283 -0.8430
vn 0.5661 -0.5596 -0.6053
vn 0.0438 0.9455 0.3226
vn 0.8606 -0.0843 0.5023
vn -0.0316 -0.9393 -0.3417
vn -0.0369 0.5322 -0.8458
vn 0.9974 -0.0117 0.0711
vn -0.4720 0.5828 0.6615
vn -0.5646 0.5547 0.6112
vn 0.9340 -0.0585 0.3523
vn -0.4507 0.4878 -0.7476
vn 0.4856 -0.5752 -0.6583
vn -0.9747 0.1157 -0.1914
vn -0.4558 -0.4864 0.7455
vn -0.2873 0.6717 0.6829
vn 0.3081 -0.1600 0.9378
vn 0.2880 -0.6796 -0.6747
vn 0.3293 -0.6266 -0.7063
vn 0.9962 -0.0149 0.0864
vn -0.3272 0.6165 0.7161
vn -0.5677 0.4365 -0.6980
usemtl Material
s off
f 46/1/1 1/2/1 2/3/1
f 47/4/2 2/5/2 3/6/2
f 45/7/3 48/8/3 1/2/3
f 1/2/4 5/9/4 2/3/4
f 2/3/5 6/10/5 3/11/5
f 1/2/6 48/8/6 4/12/6
f 5/9/7 57/13/7 6/10/7
f 4/12/8 48/8/8 55/14/8
f 4/12/9 56/15/9 5/9/9
f 10/16/10 69/17/10 58/18/10
f 6/19/11 14/20/11 18/21/11
f 11/22/12 58/18/12 59/23/12
f 9/24/13 12/25/13 10/26/13
f 7/27/14 17/28/14 14/29/14
f 47/30/15 11/22/15 59/23/15
f 60/31/16 8/32/16 9/33/16
f 63/34/17 12/25/17 8/35/17
f 57/36/18 7/37/18 6/19/18
f 61/38/19 9/33/19 7/27/19
f 15/39/20 19/40/20 16/41/20
f 15/39/21 13/42/21 22/43/21
f 11/44/22 16/41/22 10/26/22
f 3/6/23 18/21/23 13/45/23
f 3/46/24 15/39/24 11/44/24
f 10/26/25 17/47/25 9/24/25
f 19/40/26 24/48/26 20/49/26
f 21/50/27 20/51/27 24/52/27
f 14/53/28 20/51/28 21/50/28
f 17/47/29 19/40/29 20/49/29
f 18/21/30 14/20/30 21/54/30
f 19/40/31 22/43/31 23/55/31
f 13/56/32 21/57/32 22/58/32
f 28/59/33 31/60/33 32/61/33
f 28/62/34 30/63/34 25/64/34
f 22/43/35 27/65/35 23/55/35
f 21/66/36 26/67/36 22/43/36
f 21/50/37 28/62/37 25/64/37
f 24/48/38 27/65/38 28/59/38
f 30/68/39 33/69/39 29/70/39
f 29/70/40 35/71/40 31/60/40
f 27/65/41 29/70/41 31/60/41
f 25/72/42 29/70/42 26/67/42
f 42/73/43 39/74/43 40/75/43
f 30/63/44 36/76/44 34/77/44
f 31/60/45 36/78/45 32/61/45
f 37/79/46 39/74/46 38/80/46
f 41/81/47 38/80/47 39/74/47
f 43/82/48 38/80/48 44/83/48
f 42/84/49 37/85/49 43/86/49
f 34/77/50 42/84/50 43/86/50
f 34/87/51 44/83/51 33/69/51
f 33/69/52 41/81/52 35/71/52
f 36/78/53 41/81/53 42/73/53
f 46/1/54 49/88/54 45/7/54
f 47/4/55 50/89/55 46/90/55
f 45/7/56 49/88/56 48/8/56
f 53/91/57 49/88/57 50/92/57
f 54/93/58 50/92/58 51/94/58
f 49/88/59 52/95/59 48/8/59
f 57/13/60 53/91/60 54/93/60
f 52/95/61 55/14/61 48/8/61
f 56/15/62 52/95/62 53/91/62
f 69/17/63 66/96/63 58/18/63
f 54/97/64 71/98/64 62/99/64
f 58/18/65 67/100/65 59/23/65
f 68/101/66 65/102/66 66/103/66
f 62/104/67 74/105/67 65/106/67
f 47/30/68 67/100/68 51/107/68
f 64/108/69 60/31/69 65/106/69
f 68/101/17 63/34/17 64/109/17
f 62/99/70 57/36/70 54/97/70
f 65/106/71 61/38/71 62/104/71
f 76/110/72 72/111/72 73/112/72
f 72/111/73 79/113/73 70/114/73
f 73/112/74 67/115/74 66/103/74
f 51/116/75 75/117/75 54/97/75
f 72/111/76 51/118/76 67/115/76
f 74/119/77 66/103/77 65/102/77
f 81/120/78 76/110/78 77/121/78
f 78/122/79 81/123/79 77/124/79
f 71/125/80 77/124/80 74/126/80
f 74/119/81 76/110/81 73/112/81
f 75/117/82 78/127/82 71/98/82
f 76/110/83 80/128/83 79/113/83
f 70/129/84 78/130/84 75/131/84
f 85/132/85 88/133/85 84/134/85
f 87/135/86 85/136/86 82/137/86
f 84/134/87 79/113/87 80/128/87
f 83/138/88 78/139/88 79/113/88
f 78/122/89 85/136/89 81/123/89
f 81/120/90 84/134/90 80/128/90
f 90/140/91 87/141/91 86/142/91
f 92/143/92 86/142/92 88/133/92
f 84/134/93 86/142/93 83/138/93
f 86/142/94 82/144/94 83/138/94
f 99/145/95 96/146/95 98/147/95
f 87/135/96 93/148/96 89/149/96
f 93/150/97 88/133/97 89/151/97
f 96/146/98 94/152/98 95/153/98
f 98/147/99 95/153/99 101/154/99
f 95/153/100 100/155/100 101/154/100
f 94/156/101 99/157/101 100/158/101
f 91/159/102 99/157/102 93/148/102
f 101/154/103 91/160/103 90/140/103
f 98/147/104 90/140/104 92/143/104
f 93/150/105 98/147/105 92/143/105
f 46/1/106 45/7/106 1/2/106
f 47/4/107 46/90/107 2/5/107
f 1/2/4 4/12/4 5/9/4
f 2/3/5 5/9/5 6/10/5
f 5/9/108 56/15/108 57/13/108
f 4/12/109 55/14/109 56/15/109
f 10/16/110 12/161/110 69/17/110
f 6/19/111 7/37/111 14/20/111
f 11/22/112 10/16/112 58/18/112
f 9/24/113 8/35/113 12/25/113
f 7/27/114 9/33/114 17/28/114
f 47/30/115 3/162/115 11/22/115
f 60/31/116 63/163/116 8/32/116
f 63/34/17 69/164/17 12/25/17
f 57/36/117 61/165/117 7/37/117
f 61/38/118 60/31/118 9/33/118
f 15/39/119 22/43/119 19/40/119
f 11/44/120 15/39/120 16/41/120
f 3/6/121 6/19/121 18/21/121
f 3/46/122 13/42/122 15/39/122
f 10/26/123 16/41/123 17/47/123
f 19/40/124 23/55/124 24/48/124
f 14/53/125 17/166/125 20/51/125
f 17/47/29 16/41/29 19/40/29
f 13/56/126 18/167/126 21/57/126
f 28/59/127 27/65/127 31/60/127
f 28/62/128 32/168/128 30/63/128
f 22/43/129 26/67/129 27/65/129
f 21/66/130 25/72/130 26/67/130
f 21/50/131 24/52/131 28/62/131
f 24/48/132 23/55/132 27/65/132
f 30/68/133 34/87/133 33/69/133
f 29/70/134 33/69/134 35/71/134
f 27/65/135 26/67/135 29/70/135
f 25/72/136 30/68/136 29/70/136
f 42/73/137 41/81/137 39/74/137
f 30/63/138 32/168/138 36/76/138
f 31/60/139 35/71/139 36/78/139
f 37/79/140 40/75/140 39/74/140
f 41/81/141 44/83/141 38/80/141
f 43/82/142 37/79/142 38/80/142
f 42/84/143 40/169/143 37/85/143
f 34/77/144 36/76/144 42/84/144
f 34/87/145 43/82/145 44/83/145
f 33/69/146 44/83/146 41/81/146
f 36/78/147 35/71/147 41/81/147
f 46/1/148 50/92/148 49/88/148
f 47/4/149 51/116/149 50/89/149
f 53/91/57 52/95/57 49/88/57
f 54/93/58 53/91/58 50/92/58
f 57/13/150 56/15/150 53/91/150
f 56/15/151 55/14/151 52/95/151
f 69/17/152 68/170/152 66/96/152
f 54/97/153 75/117/153 71/98/153
f 58/18/154 66/96/154 67/100/154
f 68/101/155 64/109/155 65/102/155
f 62/104/156 71/171/156 74/105/156
f 47/30/157 59/23/157 67/100/157
f 64/108/158 63/163/158 60/31/158
f 68/101/17 69/164/17 63/34/17
f 62/99/159 61/165/159 57/36/159
f 65/106/160 60/31/160 61/38/160
f 76/110/161 79/113/161 72/111/161
f 73/112/162 72/111/162 67/115/162
f 51/116/163 70/172/163 75/117/163
f 72/111/164 70/114/164 51/118/164
f 74/119/165 73/112/165 66/103/165
f 81/120/166 80/128/166 76/110/166
f 71/125/167 78/122/167 77/124/167
f 74/119/81 77/121/81 76/110/81
f 70/129/168 79/173/168 78/130/168
f 85/132/169 89/151/169 88/133/169
f 87/135/170 89/149/170 85/136/170
f 84/134/171 83/138/171 79/113/171
f 83/138/172 82/144/172 78/139/172
f 78/122/173 82/137/173 85/136/173
f 81/120/174 85/132/174 84/134/174
f 90/140/175 91/160/175 87/141/175
f 92/143/176 90/140/176 86/142/176
f 84/134/177 88/133/177 86/142/177
f 86/142/178 87/141/178 82/144/178
f 99/145/179 97/174/179 96/146/179
f 87/135/180 91/159/180 93/148/180
f 93/150/181 92/143/181 88/133/181
f 96/146/182 97/174/182 94/152/182
f 98/147/183 96/146/183 95/153/183
f 95/153/184 94/152/184 100/155/184
f 94/156/185 97/175/185 99/157/185
f 91/159/186 100/158/186 99/157/186
f 101/154/187 100/155/187 91/160/187
f 98/147/188 101/154/188 90/140/188
f 93/150/189 99/145/189 98/147/189
