# Blender v2.78 (sub 0) OBJ File: 'bigOlBatBlend.blend'
# www.blender.org
mtllib bigOlBat_hurt.mtl
o Sphere
v 0.425198 0.258532 3.893626
v 0.797981 0.641001 3.633615
v 0.854463 0.960784 3.174500
v 0.425198 -0.170879 3.609678
v 0.748261 -0.208560 3.141803
v 0.866511 -0.102857 2.606605
v 0.605018 0.131946 1.994077
v 0.056012 -0.232426 0.116175
v 0.343526 -0.000333 1.118736
v 0.343526 0.372732 1.168614
v 0.605018 0.776266 2.080223
v 0.056012 -0.193549 0.102105
v 0.961372 1.177090 3.247054
v 0.990360 0.457549 2.030513
v 0.953366 0.786797 1.964976
v 0.800288 0.452186 1.340210
v 0.811576 0.245641 1.329413
v 1.045852 0.932437 3.166996
v 0.972131 0.361832 1.020978
v 1.000289 0.136988 1.010181
v 1.236377 1.784875 3.587683
v 1.142411 1.950623 3.492692
v 1.225722 1.610935 1.559726
v 1.300626 1.427748 1.551239
v 1.348118 1.909471 3.819241
v 1.251715 2.078905 3.720776
v 1.978697 2.023716 1.601678
v 2.054676 1.838903 1.594725
v 1.352440 2.158319 3.974558
v 1.449834 1.987387 4.074436
v 2.224869 1.974404 1.564575
v 2.301159 1.789120 1.558066
v 1.413119 2.146053 4.160021
v 1.511073 1.974276 4.260697
v 2.380175 2.168164 2.115870
v 2.459301 1.978591 2.113405
v 1.906005 1.981426 4.869995
v 1.811238 2.148385 4.773863
v 3.768490 2.621930 3.117701
v 3.841774 2.441194 3.106904
v 2.924096 2.499944 2.621754
v 3.000548 2.314415 2.615475
v 1.663817 1.949497 4.720619
v 1.569796 2.115328 4.625552
v 0.000000 0.473238 4.035600
v 0.000000 0.907084 3.879520
v 0.000000 1.185378 3.458448
v 0.000000 0.000088 3.884865
v -0.425198 0.258532 3.893626
v -0.797981 0.641001 3.633615
v -0.854463 0.960784 3.174500
v -0.425198 -0.170879 3.609678
v -0.748261 -0.208560 3.141803
v -0.866511 -0.102857 2.606605
v 0.000000 -0.385585 3.467704
v 0.000000 -0.580441 2.895896
v 0.000000 -0.532269 2.322657
v 0.000000 0.559265 1.193554
v 0.000000 1.098426 2.123295
v 0.000000 -0.186866 1.093796
v 0.000000 -0.190214 1.951005
v -0.605018 0.131946 1.994077
v 0.000000 -0.251865 0.123210
v -0.056012 -0.232426 0.116175
v -0.343526 -0.000333 1.118736
v -0.343526 0.372732 1.168614
v -0.605018 0.776266 2.080223
v -0.056012 -0.193549 0.102105
v 0.000000 -0.174111 0.095070
v -0.961372 1.177090 3.247054
v -0.990360 0.457549 2.030513
v -0.953366 0.786797 1.964976
v -0.800288 0.452186 1.340210
v -0.811576 0.245641 1.329413
v -1.045852 0.932437 3.166996
v -0.972131 0.361832 1.020978
v -1.000289 0.136988 1.010181
v -1.236377 1.784875 3.587683
v -1.142411 1.950623 3.492692
v -1.225722 1.610935 1.559726
v -1.300626 1.427748 1.551239
v -1.348118 1.909471 3.819241
v -1.251715 2.078905 3.720776
v -1.978697 2.023716 1.601678
v -2.054676 1.838903 1.594725
v -1.352440 2.158319 3.974558
v -1.449834 1.987387 4.074436
v -2.224869 1.974404 1.564575
v -2.301159 1.789120 1.558066
v -1.413119 2.146053 4.160021
v -1.511073 1.974276 4.260697
v -2.380175 2.168164 2.115870
v -2.459301 1.978591 2.113405
v -1.906005 1.981426 4.869995
v -1.811238 2.148385 4.773863
v -3.768490 2.621930 3.117701
v -3.841774 2.441194 3.106904
v -2.924096 2.499944 2.621754
v -3.000548 2.314415 2.615475
v -1.663817 1.949497 4.720619
v -1.569796 2.115328 4.625552
vt 0.1611 0.6034
vt 0.1882 0.5524
vt 0.2089 0.5492
vt 0.7924 0.5286
vt 0.7929 0.5291
vt 0.7930 0.5284
vt 0.1611 0.5837
vt 0.1611 0.5306
vt 0.1882 0.4898
vt 0.2089 0.4408
vt 0.2164 0.5219
vt 0.2164 0.3968
vt 0.1611 0.3866
vt 0.1611 0.3342
vt 0.1611 0.4585
vt 0.3419 0.3647
vt 0.3706 0.1693
vt 0.3706 0.3876
vt 0.7930 0.5277
vt 0.7932 0.5268
vt 0.7932 0.5284
vt 0.3201 0.5242
vt 0.3706 0.5637
vt 0.7822 0.4991
vt 0.7820 0.4975
vt 0.7822 0.4991
vt 0.6007 0.5549
vt 0.6134 0.4745
vt 0.6242 0.5508
vt 0.2983 0.6625
vt 0.3706 0.7442
vt 0.5656 0.4617
vt 0.5689 0.3498
vt 0.5855 0.4580
vt 0.7819 0.4976
vt 0.7820 0.4976
vt 0.7923 0.5272
vt 0.7929 0.5267
vt 0.5656 0.5614
vt 0.7827 0.5003
vt 0.7827 0.4990
vt 0.7825 0.4994
vt 0.7826 0.5022
vt 0.7829 0.5026
vt 0.7824 0.5004
vt 0.7932 0.5285
vt 0.7825 0.5021
vt 0.7825 0.4994
vt 0.7833 0.4999
vt 0.7827 0.4990
vt 0.7640 0.4867
vt 0.7965 0.3045
vt 0.8094 0.3968
vt 0.7787 0.3625
vt 0.7934 0.5291
vt 0.7833 0.4999
vt 0.7933 0.4988
vt 0.7936 0.4993
vt 0.7936 0.4991
vt 0.7839 0.5001
vt 0.7840 0.5001
vt 0.7840 0.5001
vt 0.7628 0.5068
vt 0.8405 0.4729
vt 0.7604 0.5257
vt 0.7839 0.5001
vt 0.7829 0.5028
vt 0.7830 0.5029
vt 0.8327 0.4565
vt 0.7830 0.5035
vt 0.7830 0.5036
vt 0.7830 0.5033
vt 0.7841 0.5009
vt 0.7830 0.5031
vt 0.7844 0.5018
vt 0.7849 0.5027
vt 0.7849 0.5027
vt 0.8335 0.5104
vt 0.7579 0.5386
vt 0.7841 0.5010
vt 0.7831 0.5048
vt 0.7832 0.5046
vt 0.7844 0.5018
vt 0.7830 0.5045
vt 0.7830 0.5043
vt 0.8396 0.5738
vt 0.7550 0.5935
vt 0.7514 0.5697
vt 0.7830 0.5038
vt 0.1339 0.5524
vt 0.7929 0.5291
vt 0.7924 0.5293
vt 0.1132 0.5492
vt 0.1339 0.4898
vt 0.1057 0.5219
vt 0.1132 0.4408
vt 0.1057 0.3968
vt 0.3419 0.3647
vt 0.7930 0.5277
vt 0.7932 0.5268
vt 0.7929 0.5267
vt 0.3201 0.5242
vt 0.7820 0.4975
vt 0.7822 0.4991
vt 0.7822 0.4991
vt 0.6007 0.5549
vt 0.6134 0.4745
vt 0.5855 0.4580
vt 0.2983 0.6625
vt 0.5689 0.3498
vt 0.7820 0.4976
vt 0.7827 0.4990
vt 0.7827 0.5003
vt 0.7825 0.4994
vt 0.7829 0.5026
vt 0.7826 0.5022
vt 0.7824 0.5004
vt 0.7930 0.5284
vt 0.7932 0.5284
vt 0.7825 0.5021
vt 0.7825 0.4994
vt 0.7833 0.4999
vt 0.7827 0.4990
vt 0.7640 0.4867
vt 0.8094 0.3968
vt 0.7965 0.3045
vt 0.7787 0.3625
vt 0.7847 0.3091
vt 0.7934 0.5291
vt 0.7833 0.4999
vt 0.7933 0.4988
vt 0.7936 0.4993
vt 0.7933 0.4987
vt 0.7839 0.5001
vt 0.7840 0.5001
vt 0.7839 0.5001
vt 0.7628 0.5068
vt 0.8405 0.4729
vt 0.8327 0.4565
vt 0.7830 0.5029
vt 0.7829 0.5028
vt 0.7830 0.5036
vt 0.7830 0.5035
vt 0.7830 0.5033
vt 0.7841 0.5009
vt 0.7830 0.5031
vt 0.7844 0.5018
vt 0.7849 0.5027
vt 0.7844 0.5018
vt 0.7604 0.5257
vt 0.8335 0.5104
vt 0.7841 0.5010
vt 0.7840 0.5001
vt 0.7831 0.5048
vt 0.7832 0.5046
vt 0.7830 0.5043
vt 0.7830 0.5045
vt 0.7550 0.5935
vt 0.8396 0.5738
vt 0.7514 0.5697
vt 0.7579 0.5386
vt 0.7830 0.5038
vt 0.3659 0.1681
vt 0.5656 0.3513
vt 0.7819 0.4975
vt 0.7924 0.5266
vt 0.7847 0.3091
vt 0.7933 0.4987
vt 0.8527 0.6552
vt 0.3659 0.1681
vt 0.6242 0.5508
vt 0.7932 0.5285
vt 0.7936 0.4991
vt 0.7849 0.5027
vt 0.8527 0.6552
vn 0.3618 0.2567 0.8962
vn 0.3796 0.7366 0.5598
vn 0.1627 -0.2995 0.9401
vn 0.7532 -0.3620 0.5492
vn 0.9759 -0.0941 0.1970
vn 0.3031 -0.5256 0.7949
vn 0.4622 -0.8836 -0.0743
vn 0.1426 -0.7268 0.6719
vn 0.3424 -0.8893 0.3031
vn 0.3804 0.7692 -0.5135
vn 0.9820 -0.1863 0.0299
vn 0.3911 0.7962 -0.4617
vn 0.9597 0.0372 -0.2785
vn 0.6402 -0.7652 0.0680
vn 0.2340 0.9702 -0.0632
vn 0.4723 -0.8788 0.0680
vn -0.0000 -0.3403 -0.9403
vn 0.5107 -0.7071 -0.4891
vn 0.4704 -0.8824 -0.0072
vn -0.2814 0.8729 -0.3986
vn -0.9662 0.2482 -0.0695
vn -0.0078 0.9152 -0.4029
vn -0.0093 -0.3139 0.9494
vn -0.0788 0.9858 -0.1483
vn 0.3524 0.1240 -0.9276
vn 0.7144 0.1226 -0.6889
vn 0.9638 -0.2558 0.0753
vn 0.9497 -0.2960 0.1022
vn -0.8702 -0.0857 -0.4852
vn 0.9684 -0.2433 0.0544
vn -0.9691 0.2324 -0.0826
vn -0.7430 -0.0383 0.6682
vn -0.1526 -0.0281 -0.9879
vn 0.2895 -0.9416 0.1721
vn -0.4661 0.8677 -0.1726
vn -0.8412 -0.1859 0.5077
vn 0.5247 -0.8291 0.1930
vn 0.0264 0.0571 -0.9980
vn -0.8959 -0.3528 0.2698
vn -0.3845 0.8994 -0.2078
vn 0.2026 0.9783 0.0440
vn -0.8708 -0.2493 0.4236
vn 0.4628 0.2386 -0.8537
vn -0.0883 -0.9952 -0.0410
vn 0.8551 0.3650 -0.3681
vn 0.4145 0.6192 0.6669
vn -0.1809 0.9812 0.0667
vn -0.5326 0.1730 0.8285
vn 0.1687 -0.9836 -0.0634
vn 0.1221 -0.9881 -0.0938
vn -0.8954 -0.3474 0.2784
vn -0.3894 0.9044 -0.1744
vn 0.5713 0.2486 -0.7822
vn -0.4365 0.3046 0.8466
vn -0.4089 0.7613 0.5032
vn -0.1627 -0.2995 0.9401
vn -0.7540 -0.3623 0.5480
vn -0.9941 -0.0919 0.0583
vn -0.3031 -0.5256 0.7949
vn -0.4628 -0.8835 -0.0722
vn -0.1426 -0.7268 0.6719
vn -0.3444 -0.8865 0.3092
vn -0.3804 0.7692 -0.5135
vn -0.5873 -0.6396 -0.4959
vn -0.3911 0.7962 -0.4617
vn -0.9597 0.0372 -0.2785
vn -0.4673 -0.8841 -0.0060
vn -0.2340 0.9702 -0.0632
vn -0.4723 -0.8788 0.0680
vn -0.5107 -0.7071 -0.4891
vn -0.4704 -0.8824 -0.0072
vn 0.2814 0.8729 -0.3986
vn 0.9662 0.2482 -0.0695
vn 0.0078 0.9152 -0.4029
vn 0.0352 -0.4710 0.8814
vn 0.0788 0.9858 -0.1483
vn -0.3524 0.1240 -0.9276
vn -0.7144 0.1226 -0.6889
vn -0.9638 -0.2558 0.0753
vn 0.0429 -0.9533 0.2991
vn 0.8831 -0.0238 -0.4686
vn -0.9684 -0.2433 0.0544
vn 0.9691 0.2324 -0.0826
vn 0.2595 -0.3801 0.8878
vn 0.1541 -0.0262 -0.9877
vn 0.2026 -0.9787 -0.0333
vn 0.4661 0.8677 -0.1726
vn 0.8412 -0.1859 0.5077
vn -0.4645 -0.8696 0.1672
vn -0.0264 0.0571 -0.9980
vn 0.8959 -0.3528 0.2698
vn 0.3845 0.8994 -0.2078
vn -0.2026 0.9783 0.0440
vn 0.8708 -0.2493 0.4236
vn -0.4697 0.2225 -0.8544
vn -0.3803 -0.9030 0.1998
vn -0.8551 0.3650 -0.3681
vn -0.4145 0.6192 0.6669
vn 0.1768 0.9818 0.0690
vn 0.5326 0.1730 0.8285
vn -0.1687 -0.9836 -0.0634
vn -0.3977 -0.9009 0.1738
vn 0.8954 -0.3474 0.2784
vn 0.3894 0.9044 -0.1744
vn -0.5713 0.2486 -0.7822
vn 0.4365 0.3046 0.8466
vn 0.4089 0.7613 0.5032
vn 0.7540 -0.3623 0.5480
vn 0.9941 -0.0919 0.0583
vn 0.4628 -0.8835 -0.0722
vn 0.3444 -0.8865 0.3092
vn 0.3384 0.7903 -0.5108
vn 0.5873 -0.6396 -0.4959
vn 0.3964 0.7920 -0.4643
vn 0.9626 -0.0922 -0.2547
vn 0.4673 -0.8841 -0.0060
vn 0.4418 0.8627 -0.2462
vn 0.3343 -0.9404 0.0630
vn 0.4027 -0.6735 -0.6199
vn 0.4774 -0.8787 -0.0034
vn -0.8894 0.4099 -0.2022
vn -0.1699 0.8854 -0.4326
vn -0.0352 -0.4710 0.8814
vn -0.8683 0.4760 -0.1395
vn 0.3405 0.0676 -0.9378
vn 0.5158 0.2489 -0.8198
vn -0.0429 -0.9533 0.2991
vn -0.8831 -0.0238 -0.4686
vn -0.2595 -0.3801 0.8878
vn -0.1541 -0.0262 -0.9877
vn -0.2026 -0.9787 -0.0333
vn -0.5348 0.8198 -0.2048
vn -0.8424 -0.1852 0.5061
vn 0.4645 -0.8696 0.1672
vn 0.0286 0.0493 -0.9984
vn -0.8960 -0.3528 0.2697
vn 0.0689 0.9967 0.0434
vn -0.2929 0.9395 -0.1777
vn -0.8711 -0.2490 0.4232
vn 0.4697 0.2225 -0.8544
vn 0.3803 -0.9030 0.1998
vn 0.8562 0.3622 -0.3685
vn 0.6304 0.2110 0.7471
vn -0.1768 0.9818 0.0690
vn -0.5335 0.1738 0.8278
vn 0.1813 -0.9818 -0.0570
vn 0.3977 -0.9009 0.1738
vn -0.8952 -0.3479 0.2786
vn -0.1227 0.9867 0.1064
vn 0.5676 0.2603 -0.7810
vn -0.3618 0.2567 0.8962
vn -0.3796 0.7366 0.5598
vn -0.7532 -0.3620 0.5492
vn -0.9759 -0.0941 0.1970
vn -0.4622 -0.8836 -0.0743
vn -0.3424 -0.8893 0.3031
vn -0.3384 0.7903 -0.5108
vn -0.9820 -0.1863 0.0299
vn -0.3964 0.7920 -0.4643
vn -0.9626 -0.0922 -0.2547
vn -0.6402 -0.7652 0.0680
vn -0.4418 0.8627 -0.2462
vn -0.3343 -0.9404 0.0630
vn -0.4027 -0.6735 -0.6199
vn -0.4774 -0.8787 -0.0034
vn 0.8894 0.4099 -0.2022
vn 0.1699 0.8854 -0.4326
vn 0.0093 -0.3139 0.9494
vn 0.8683 0.4760 -0.1395
vn -0.3405 0.0676 -0.9378
vn -0.5158 0.2489 -0.8198
vn -0.9497 -0.2960 0.1022
vn 0.8702 -0.0857 -0.4852
vn 0.7430 -0.0383 0.6682
vn 0.1526 -0.0281 -0.9879
vn -0.2895 -0.9416 0.1721
vn 0.5348 0.8198 -0.2048
vn 0.8424 -0.1852 0.5061
vn -0.5247 -0.8291 0.1930
vn -0.0286 0.0493 -0.9984
vn 0.8960 -0.3528 0.2697
vn -0.0689 0.9967 0.0434
vn 0.2929 0.9395 -0.1777
vn 0.8711 -0.2490 0.4232
vn -0.4628 0.2386 -0.8537
vn 0.0883 -0.9952 -0.0410
vn -0.8562 0.3622 -0.3685
vn -0.6304 0.2110 0.7471
vn 0.1809 0.9812 0.0667
vn 0.5335 0.1738 0.8278
vn -0.1813 -0.9818 -0.0570
vn -0.1221 -0.9881 -0.0938
vn 0.8952 -0.3479 0.2786
vn 0.1227 0.9867 0.1064
vn -0.5676 0.2603 -0.7810
usemtl Material
s off
f 46/1/1 1/2/1 2/3/1
f 47/4/2 2/5/2 3/6/2
f 45/7/3 48/8/3 1/2/3
f 2/3/4 4/9/4 5/10/4
f 3/11/5 5/10/5 6/12/5
f 1/2/6 48/8/6 4/9/6
f 6/12/7 56/13/7 57/14/7
f 4/9/8 48/8/8 55/15/8
f 5/10/9 55/15/9 56/13/9
f 10/16/10 69/17/10 58/18/10
f 6/19/11 14/20/11 18/21/11
f 11/22/12 58/18/12 59/23/12
f 9/24/13 12/25/13 10/26/13
f 7/27/14 17/28/14 14/29/14
f 3/30/15 59/23/15 47/31/15
f 60/32/16 8/33/16 9/34/16
f 63/35/17 12/25/17 8/36/17
f 57/37/18 7/38/18 6/19/18
f 61/39/19 9/34/19 7/27/19
f 15/40/20 19/41/20 16/42/20
f 15/40/21 13/43/21 22/44/21
f 11/45/22 16/42/22 10/26/22
f 3/6/23 18/21/23 13/46/23
f 3/47/24 15/40/24 11/45/24
f 10/26/25 17/48/25 9/24/25
f 19/41/26 24/49/26 20/50/26
f 21/51/27 20/52/27 24/53/27
f 14/54/28 20/52/28 21/51/28
f 17/48/29 19/41/29 20/50/29
f 18/21/30 14/20/30 21/55/30
f 19/41/31 22/44/31 23/56/31
f 13/57/32 21/58/32 22/59/32
f 28/60/33 31/61/33 32/62/33
f 25/63/34 32/64/34 30/65/34
f 22/44/35 27/66/35 23/56/35
f 21/67/36 26/68/36 22/44/36
f 21/51/37 28/69/37 25/63/37
f 23/56/38 28/60/38 24/49/38
f 30/70/39 33/71/39 29/72/39
f 29/72/40 35/73/40 31/61/40
f 26/68/41 31/61/41 27/66/41
f 25/74/42 29/72/42 26/68/42
f 42/75/43 39/76/43 40/77/43
f 30/65/44 36/78/44 34/79/44
f 31/61/45 36/80/45 32/62/45
f 37/81/46 39/76/46 38/82/46
f 41/83/47 38/82/47 39/76/47
f 43/84/48 38/82/48 44/85/48
f 42/86/49 37/87/49 43/88/49
f 34/79/50 42/86/50 43/88/50
f 34/89/51 44/85/51 33/71/51
f 33/71/52 41/83/52 35/73/52
f 35/73/53 42/75/53 36/80/53
f 46/1/54 49/90/54 45/7/54
f 47/4/55 50/91/55 46/92/55
f 45/7/56 49/90/56 48/8/56
f 50/93/57 52/94/57 49/90/57
f 51/95/58 53/96/58 50/93/58
f 49/90/59 52/94/59 48/8/59
f 54/97/60 56/13/60 53/96/60
f 52/94/61 55/15/61 48/8/61
f 53/96/62 55/15/62 52/94/62
f 69/17/63 66/98/63 58/18/63
f 54/99/64 71/100/64 62/101/64
f 58/18/65 67/102/65 59/23/65
f 68/103/66 65/104/66 66/105/66
f 62/106/67 74/107/67 65/108/67
f 59/23/68 51/109/68 47/31/68
f 64/110/69 60/32/69 65/108/69
f 68/103/17 63/35/17 64/111/17
f 62/101/70 57/37/70 54/99/70
f 65/108/71 61/39/71 62/106/71
f 76/112/72 72/113/72 73/114/72
f 72/113/73 79/115/73 70/116/73
f 73/114/74 67/117/74 66/105/74
f 51/118/75 75/119/75 54/99/75
f 72/113/76 51/120/76 67/117/76
f 74/121/77 66/105/77 65/104/77
f 81/122/78 76/112/78 77/123/78
f 78/124/79 81/125/79 77/126/79
f 71/127/80 77/126/80 74/128/80
f 74/121/81 76/112/81 73/114/81
f 75/119/82 78/129/82 71/100/82
f 76/112/83 80/130/83 79/115/83
f 70/131/84 78/132/84 75/133/84
f 85/134/85 88/135/85 84/136/85
f 82/137/86 89/138/86 85/139/86
f 84/136/87 79/115/87 80/130/87
f 83/140/88 78/141/88 79/115/88
f 78/124/89 85/139/89 81/125/89
f 85/134/90 80/130/90 81/122/90
f 90/142/91 87/143/91 86/144/91
f 92/145/92 86/144/92 88/135/92
f 88/135/93 83/140/93 84/136/93
f 86/144/94 82/146/94 83/140/94
f 99/147/95 96/148/95 98/149/95
f 87/150/96 93/151/96 89/138/96
f 93/152/97 88/135/97 89/153/97
f 96/148/98 94/154/98 95/155/98
f 98/149/99 95/155/99 101/156/99
f 95/155/100 100/157/100 101/156/100
f 94/158/101 99/159/101 100/160/101
f 91/161/102 99/159/102 93/151/102
f 101/156/103 91/162/103 90/142/103
f 98/149/104 90/142/104 92/145/104
f 99/147/105 92/145/105 93/152/105
f 46/1/106 45/7/106 1/2/106
f 47/4/107 46/92/107 2/5/107
f 2/3/108 1/2/108 4/9/108
f 3/11/109 2/3/109 5/10/109
f 6/12/110 5/10/110 56/13/110
f 5/10/111 4/9/111 55/15/111
f 10/16/112 12/163/112 69/17/112
f 6/19/113 7/38/113 14/20/113
f 11/22/114 10/16/114 58/18/114
f 9/24/115 8/36/115 12/25/115
f 7/27/116 9/34/116 17/28/116
f 3/30/117 11/22/117 59/23/117
f 60/32/118 63/164/118 8/33/118
f 63/35/17 69/165/17 12/25/17
f 57/37/119 61/166/119 7/38/119
f 61/39/120 60/32/120 9/34/120
f 15/40/121 22/44/121 19/41/121
f 11/45/122 15/40/122 16/42/122
f 3/6/123 6/19/123 18/21/123
f 3/47/124 13/43/124 15/40/124
f 10/26/125 16/42/125 17/48/125
f 19/41/126 23/56/126 24/49/126
f 14/54/127 17/167/127 20/52/127
f 17/48/128 16/42/128 19/41/128
f 13/57/129 18/168/129 21/58/129
f 28/60/130 27/66/130 31/61/130
f 25/63/131 28/69/131 32/64/131
f 22/44/132 26/68/132 27/66/132
f 21/67/133 25/74/133 26/68/133
f 21/51/134 24/53/134 28/69/134
f 23/56/135 27/66/135 28/60/135
f 30/70/136 34/89/136 33/71/136
f 29/72/137 33/71/137 35/73/137
f 26/68/138 29/72/138 31/61/138
f 25/74/139 30/70/139 29/72/139
f 42/75/140 41/83/140 39/76/140
f 30/65/141 32/64/141 36/78/141
f 31/61/142 35/73/142 36/80/142
f 37/81/143 40/77/143 39/76/143
f 41/83/144 44/85/144 38/82/144
f 43/84/145 37/81/145 38/82/145
f 42/86/146 40/169/146 37/87/146
f 34/79/147 36/78/147 42/86/147
f 34/89/148 43/84/148 44/85/148
f 33/71/149 44/85/149 41/83/149
f 35/73/150 41/83/150 42/75/150
f 46/1/151 50/93/151 49/90/151
f 47/4/152 51/118/152 50/91/152
f 50/93/153 53/96/153 52/94/153
f 51/95/154 54/97/154 53/96/154
f 54/97/155 57/14/155 56/13/155
f 53/96/156 56/13/156 55/15/156
f 69/17/157 68/170/157 66/98/157
f 54/99/158 75/119/158 71/100/158
f 58/18/159 66/98/159 67/102/159
f 68/103/160 64/111/160 65/104/160
f 62/106/161 71/171/161 74/107/161
f 59/23/162 67/102/162 51/109/162
f 64/110/163 63/164/163 60/32/163
f 68/103/17 69/165/17 63/35/17
f 62/101/164 61/166/164 57/37/164
f 65/108/165 60/32/165 61/39/165
f 76/112/166 79/115/166 72/113/166
f 73/114/167 72/113/167 67/117/167
f 51/118/168 70/172/168 75/119/168
f 72/113/169 70/116/169 51/120/169
f 74/121/170 73/114/170 66/105/170
f 81/122/171 80/130/171 76/112/171
f 71/127/172 78/124/172 77/126/172
f 74/121/173 77/123/173 76/112/173
f 70/131/174 79/173/174 78/132/174
f 85/134/175 89/153/175 88/135/175
f 82/137/176 87/150/176 89/138/176
f 84/136/177 83/140/177 79/115/177
f 83/140/178 82/146/178 78/141/178
f 78/124/179 82/137/179 85/139/179
f 85/134/180 84/136/180 80/130/180
f 90/142/181 91/162/181 87/143/181
f 92/145/182 90/142/182 86/144/182
f 88/135/183 86/144/183 83/140/183
f 86/144/184 87/143/184 82/146/184
f 99/147/185 97/174/185 96/148/185
f 87/150/186 91/161/186 93/151/186
f 93/152/187 92/145/187 88/135/187
f 96/148/188 97/174/188 94/154/188
f 98/149/189 96/148/189 95/155/189
f 95/155/190 94/154/190 100/157/190
f 94/158/191 97/175/191 99/159/191
f 91/161/192 100/160/192 99/159/192
f 101/156/193 100/157/193 91/162/193
f 98/149/194 101/156/194 90/142/194
f 99/147/195 98/149/195 92/145/195
