# Blender v2.78 (sub 0) OBJ File: 'error.blend'
# www.blender.org
v -0.472998 -0.449999 9.012001
v 0.028001 -0.450000 8.670000
v 0.595002 -0.450000 9.126001
v 1.000002 -0.450000 9.405001
v 1.000002 -0.450000 9.054001
v 0.580002 -0.450000 8.784000
v 0.112001 -0.450000 8.241001
v 0.112001 -0.450000 8.118000
v 1.000001 -0.450000 8.118000
v 1.000001 -0.450000 7.824000
v -1.045999 -0.449999 7.824000
v -1.045999 -0.449999 8.340000
v -0.151999 -0.449999 8.307000
v -0.484999 -0.449999 8.709001
v -0.793999 -0.449999 8.307000
v -0.793999 -0.449999 8.118000
v -0.151999 -0.449999 8.118000
v -0.022999 -0.450000 7.458001
v 1.027001 -0.450000 6.351000
v -0.022999 -0.450000 5.259001
v -1.072999 -0.449999 6.357000
v -0.022999 -0.450000 7.155001
v -0.802999 -0.449999 6.357000
v -0.022999 -0.450000 5.562001
v 0.757001 -0.450000 6.357000
v -0.472999 -0.449999 4.731001
v 0.028001 -0.450000 4.389000
v 0.595001 -0.450000 4.845001
v 1.000001 -0.450000 5.124001
v 1.000001 -0.450000 4.773001
v 0.580001 -0.450000 4.503001
v 0.112001 -0.450000 3.960001
v 0.112001 -0.450000 3.837000
v 1.000000 -0.450000 3.837000
v 1.000000 -0.450000 3.543000
v -1.046000 -0.449999 3.543001
v -1.046000 -0.449999 4.059001
v -0.151999 -0.449999 4.026001
v -0.484999 -0.449999 4.428000
v -0.794000 -0.449999 4.026001
v -0.794000 -0.449999 3.837001
v -0.151999 -0.449999 3.837000
v -0.473000 -0.449999 2.919000
v 0.028000 -0.450000 2.577000
v 0.595000 -0.450000 3.033000
v 1.000000 -0.450000 3.312001
v 1.000000 -0.450000 2.961000
v 0.580000 -0.450000 2.691000
v 0.112000 -0.450000 2.148000
v 0.112000 -0.450000 2.025000
v 1.000000 -0.450000 2.025000
v 1.000000 -0.450000 1.731000
v -1.046000 -0.449999 1.731000
v -1.046000 -0.449999 2.247000
v -0.152000 -0.449999 2.214000
v -0.485000 -0.449999 2.616000
v -0.794000 -0.449999 2.214000
v -0.794000 -0.449999 2.025000
v -0.152000 -0.449999 2.025000
v -0.782000 -0.449999 0.519000
v -0.164000 -0.449999 0.519000
v -0.164000 -0.449999 1.356000
v 0.100000 -0.450000 1.356000
v 0.100000 -0.450000 0.519000
v 0.736000 -0.450000 0.519000
v 0.736000 -0.450000 1.413000
v 1.000000 -0.450000 1.413000
v 1.000000 -0.450000 0.225000
v -1.046000 -0.449999 0.225000
v -1.046000 -0.449999 1.386000
v -0.782000 -0.449999 1.386000
v -0.472998 0.450001 9.012001
v 0.028002 0.450001 8.670000
v 0.595002 0.450000 9.126001
v 1.000002 0.450000 9.405001
v 1.000002 0.450000 9.054001
v 0.580002 0.450000 8.784000
v 0.112002 0.450000 8.241001
v 0.112002 0.450000 8.118000
v 1.000002 0.450000 8.118000
v 1.000002 0.450000 7.824000
v -1.045998 0.450001 7.824000
v -1.045998 0.450001 8.340000
v -0.151998 0.450001 8.307000
v -0.484998 0.450001 8.709001
v -0.793998 0.450001 8.307000
v -0.793998 0.450001 8.118000
v -0.151998 0.450001 8.118000
v -0.022998 0.450001 7.458001
v 1.027002 0.450000 6.351000
v -0.022999 0.450001 5.259001
v -1.072999 0.450001 6.357000
v -0.022998 0.450001 7.155001
v -0.802998 0.450001 6.357000
v -0.022999 0.450001 5.562001
v 0.757002 0.450000 6.357000
v -0.472999 0.450001 4.731001
v 0.028001 0.450001 4.389000
v 0.595001 0.450000 4.845001
v 1.000001 0.450000 5.124001
v 1.000001 0.450000 4.773001
v 0.580001 0.450000 4.503001
v 0.112001 0.450000 3.960001
v 0.112001 0.450000 3.837000
v 1.000001 0.450000 3.837000
v 1.000001 0.450000 3.543000
v -1.045999 0.450001 3.543001
v -1.045999 0.450001 4.059001
v -0.151999 0.450001 4.026001
v -0.484999 0.450001 4.428000
v -0.793999 0.450001 4.026001
v -0.793999 0.450001 3.837001
v -0.151999 0.450001 3.837000
v -0.472999 0.450001 2.919000
v 0.028001 0.450001 2.577000
v 0.595001 0.450000 3.033000
v 1.000001 0.450000 3.312001
v 1.000001 0.450000 2.961000
v 0.580001 0.450000 2.691000
v 0.112001 0.450000 2.148000
v 0.112001 0.450000 2.025000
v 1.000001 0.450000 2.025000
v 1.000001 0.450000 1.731000
v -1.046000 0.450001 1.731000
v -1.045999 0.450001 2.247000
v -0.151999 0.450001 2.214000
v -0.484999 0.450001 2.616000
v -0.793999 0.450001 2.214000
v -0.793999 0.450001 2.025000
v -0.151999 0.450001 2.025000
v -0.782000 0.450001 0.519000
v -0.164000 0.450001 0.519000
v -0.164000 0.450001 1.356000
v 0.100000 0.450000 1.356000
v 0.100000 0.450000 0.519000
v 0.736000 0.450000 0.519000
v 0.736001 0.450000 1.413000
v 1.000000 0.450000 1.413000
v 1.000000 0.450000 0.225000
v -1.046000 0.450001 0.225000
v -1.046000 0.450001 1.386000
v -0.782000 0.450001 1.386000
v -0.782000 0.450001 0.519000
v -0.782000 -0.449999 0.519000
v -0.164000 0.450001 0.519000
v -0.164000 -0.449999 0.519000
v -0.164000 0.450001 1.356000
v -0.164000 -0.449999 1.356000
v 0.100000 0.450000 1.356000
v 0.100000 -0.450000 1.356000
v 0.100000 0.450000 0.519000
v 0.100000 -0.450000 0.519000
v 0.736000 0.450000 0.519000
v 0.736000 -0.450000 0.519000
v 0.736001 0.450000 1.413000
v 0.736000 -0.450000 1.413000
v 1.000000 0.450000 1.413000
v 1.000000 -0.450000 1.413000
v 1.000000 0.450000 0.225000
v 1.000000 -0.450000 0.225000
v -1.046000 0.450001 0.225000
v -1.046000 -0.449999 0.225000
v -1.046000 0.450001 1.386000
v -1.046000 -0.449999 1.386000
v -0.782000 0.450001 1.386000
v -0.782000 -0.449999 1.386000
v -0.472999 0.450001 2.919000
v -0.473000 -0.449999 2.919000
v 0.028001 0.450001 2.577000
v 0.028000 -0.450000 2.577000
v 0.595001 0.450000 3.033000
v 0.595000 -0.450000 3.033000
v 1.000001 0.450000 3.312001
v 1.000000 -0.450000 3.312001
v 1.000001 0.450000 2.961000
v 1.000000 -0.450000 2.961000
v 0.580001 0.450000 2.691000
v 0.580000 -0.450000 2.691000
v 0.112001 0.450000 2.148000
v 0.112000 -0.450000 2.148000
v 0.112001 0.450000 2.025000
v 0.112000 -0.450000 2.025000
v 1.000001 0.450000 2.025000
v 1.000000 -0.450000 2.025000
v 1.000001 0.450000 1.731000
v 1.000000 -0.450000 1.731000
v -1.046000 0.450001 1.731000
v -1.046000 -0.449999 1.731000
v -1.045999 0.450001 2.247000
v -1.046000 -0.449999 2.247000
v -0.151999 0.450001 2.214000
v -0.152000 -0.449999 2.214000
v -0.484999 0.450001 2.616000
v -0.485000 -0.449999 2.616000
v -0.793999 0.450001 2.214000
v -0.794000 -0.449999 2.214000
v -0.793999 0.450001 2.025000
v -0.794000 -0.449999 2.025000
v -0.151999 0.450001 2.025000
v -0.152000 -0.449999 2.025000
v -0.472999 0.450001 4.731001
v -0.472999 -0.449999 4.731001
v 0.028001 0.450001 4.389000
v 0.028001 -0.450000 4.389000
v 0.595001 0.450000 4.845001
v 0.595001 -0.450000 4.845001
v 1.000001 0.450000 5.124001
v 1.000001 -0.450000 5.124001
v 1.000001 0.450000 4.773001
v 1.000001 -0.450000 4.773001
v 0.580001 0.450000 4.503001
v 0.580001 -0.450000 4.503001
v 0.112001 0.450000 3.960001
v 0.112001 -0.450000 3.960001
v 0.112001 0.450000 3.837000
v 0.112001 -0.450000 3.837000
v 1.000001 0.450000 3.837000
v 1.000000 -0.450000 3.837000
v 1.000001 0.450000 3.543000
v 1.000000 -0.450000 3.543000
v -1.045999 0.450001 3.543001
v -1.046000 -0.449999 3.543001
v -1.045999 0.450001 4.059001
v -1.046000 -0.449999 4.059001
v -0.151999 0.450001 4.026001
v -0.151999 -0.449999 4.026001
v -0.484999 0.450001 4.428000
v -0.484999 -0.449999 4.428000
v -0.793999 0.450001 4.026001
v -0.794000 -0.449999 4.026001
v -0.793999 0.450001 3.837001
v -0.794000 -0.449999 3.837001
v -0.151999 0.450001 3.837000
v -0.151999 -0.449999 3.837000
v -0.022998 0.450001 7.458001
v -0.022999 -0.450000 7.458001
v 1.027002 0.450000 6.351000
v 1.027001 -0.450000 6.351000
v -0.022999 0.450001 5.259001
v -0.022999 -0.450000 5.259001
v -1.072999 0.450001 6.357000
v -1.072999 -0.449999 6.357000
v -0.022998 0.450001 7.155001
v -0.022999 -0.450000 7.155001
v -0.802998 0.450001 6.357000
v -0.802999 -0.449999 6.357000
v -0.022999 0.450001 5.562001
v -0.022999 -0.450000 5.562001
v 0.757002 0.450000 6.357000
v 0.757001 -0.450000 6.357000
v -0.472998 0.450001 9.012001
v -0.472998 -0.449999 9.012001
v 0.028002 0.450001 8.670000
v 0.028001 -0.450000 8.670000
v 0.595002 0.450000 9.126001
v 0.595002 -0.450000 9.126001
v 1.000002 0.450000 9.405001
v 1.000002 -0.450000 9.405001
v 1.000002 0.450000 9.054001
v 1.000002 -0.450000 9.054001
v 0.580002 0.450000 8.784000
v 0.580002 -0.450000 8.784000
v 0.112002 0.450000 8.241001
v 0.112001 -0.450000 8.241001
v 0.112002 0.450000 8.118000
v 0.112001 -0.450000 8.118000
v 1.000002 0.450000 8.118000
v 1.000001 -0.450000 8.118000
v 1.000002 0.450000 7.824000
v 1.000001 -0.450000 7.824000
v -1.045998 0.450001 7.824000
v -1.045999 -0.449999 7.824000
v -1.045998 0.450001 8.340000
v -1.045999 -0.449999 8.340000
v -0.151998 0.450001 8.307000
v -0.151999 -0.449999 8.307000
v -0.484998 0.450001 8.709001
v -0.484999 -0.449999 8.709001
v -0.793998 0.450001 8.307000
v -0.793999 -0.449999 8.307000
v -0.793998 0.450001 8.118000
v -0.793999 -0.449999 8.118000
v -0.151998 0.450001 8.118000
v -0.151999 -0.449999 8.118000
vn -0.0000 -1.0000 -0.0000
vn 0.0000 1.0000 -0.0000
vn -0.7071 0.0000 0.7071
vn 0.7071 0.0000 0.7071
vn 0.7071 0.0000 -0.7071
vn -0.7071 0.0000 -0.7071
vn -0.0392 0.0000 0.9992
vn -0.1325 0.0000 0.9912
vn -0.5974 0.0000 0.8019
vn 0.4651 0.0000 0.8852
vn 0.8777 0.0000 -0.4792
vn 0.6559 0.0000 -0.7548
vn 0.9374 0.0000 -0.3482
vn -0.9383 0.0000 0.3457
vn 0.0182 0.0000 -0.9998
vn -0.9408 0.0000 -0.3390
vn 0.9468 0.0000 -0.3218
vn 1.0000 0.0000 -0.0034
vn 0.0013 0.0000 1.0000
vn -0.0013 0.0000 -1.0000
vn -1.0000 0.0000 -0.0007
vn 1.0000 0.0000 0.0009
vn 0.0000 0.0000 -1.0000
vn 0.0000 0.0000 1.0000
vn -1.0000 0.0000 0.0009
s off
f 10//1 16//1 11//1
f 16//1 12//1 11//1
f 16//1 15//1 12//1
f 15//1 1//1 12//1
f 10//1 17//1 16//1
f 14//1 1//1 15//1
f 13//1 1//1 14//1
f 13//1 2//1 1//1
f 10//1 8//1 17//1
f 8//1 13//1 17//1
f 8//1 2//1 13//1
f 8//1 7//1 2//1
f 7//1 3//1 2//1
f 10//1 9//1 8//1
f 6//1 3//1 7//1
f 5//1 3//1 6//1
f 5//1 4//1 3//1
f 20//1 23//1 21//1
f 23//1 18//1 21//1
f 20//1 24//1 23//1
f 22//1 18//1 23//1
f 19//1 24//1 20//1
f 19//1 25//1 24//1
f 25//1 18//1 22//1
f 25//1 19//1 18//1
f 35//1 41//1 36//1
f 41//1 37//1 36//1
f 41//1 40//1 37//1
f 40//1 26//1 37//1
f 35//1 42//1 41//1
f 39//1 26//1 40//1
f 38//1 26//1 39//1
f 38//1 27//1 26//1
f 35//1 33//1 42//1
f 33//1 38//1 42//1
f 33//1 27//1 38//1
f 33//1 32//1 27//1
f 32//1 28//1 27//1
f 35//1 34//1 33//1
f 31//1 28//1 32//1
f 30//1 28//1 31//1
f 30//1 29//1 28//1
f 52//1 58//1 53//1
f 58//1 54//1 53//1
f 58//1 57//1 54//1
f 57//1 43//1 54//1
f 52//1 59//1 58//1
f 56//1 43//1 57//1
f 55//1 43//1 56//1
f 55//1 44//1 43//1
f 52//1 50//1 59//1
f 50//1 55//1 59//1
f 50//1 44//1 55//1
f 50//1 49//1 44//1
f 49//1 45//1 44//1
f 52//1 51//1 50//1
f 48//1 45//1 49//1
f 47//1 45//1 48//1
f 47//1 46//1 45//1
f 68//1 60//1 69//1
f 60//1 70//1 69//1
f 60//1 71//1 70//1
f 68//1 61//1 60//1
f 68//1 64//1 61//1
f 64//1 62//1 61//1
f 64//1 63//1 62//1
f 68//1 65//1 64//1
f 68//1 66//1 65//1
f 68//1 67//1 66//1
f 87//2 81//2 82//2
f 83//2 87//2 82//2
f 86//2 87//2 83//2
f 72//2 86//2 83//2
f 88//2 81//2 87//2
f 72//2 85//2 86//2
f 72//2 84//2 85//2
f 73//2 84//2 72//2
f 79//2 81//2 88//2
f 84//2 79//2 88//2
f 73//2 79//2 84//2
f 78//2 79//2 73//2
f 74//2 78//2 73//2
f 80//2 81//2 79//2
f 74//2 77//2 78//2
f 74//2 76//2 77//2
f 75//2 76//2 74//2
f 94//2 91//2 92//2
f 89//2 94//2 92//2
f 95//2 91//2 94//2
f 89//2 93//2 94//2
f 95//2 90//2 91//2
f 96//2 90//2 95//2
f 89//2 96//2 93//2
f 90//2 96//2 89//2
f 112//2 106//2 107//2
f 108//2 112//2 107//2
f 111//2 112//2 108//2
f 97//2 111//2 108//2
f 113//2 106//2 112//2
f 97//2 110//2 111//2
f 97//2 109//2 110//2
f 98//2 109//2 97//2
f 104//2 106//2 113//2
f 109//2 104//2 113//2
f 98//2 104//2 109//2
f 103//2 104//2 98//2
f 99//2 103//2 98//2
f 105//2 106//2 104//2
f 99//2 102//2 103//2
f 99//2 101//2 102//2
f 100//2 101//2 99//2
f 129//2 123//2 124//2
f 125//2 129//2 124//2
f 128//2 129//2 125//2
f 114//2 128//2 125//2
f 130//2 123//2 129//2
f 114//2 127//2 128//2
f 114//2 126//2 127//2
f 115//2 126//2 114//2
f 121//2 123//2 130//2
f 126//2 121//2 130//2
f 115//2 121//2 126//2
f 120//2 121//2 115//2
f 116//2 120//2 115//2
f 122//2 123//2 121//2
f 116//2 119//2 120//2
f 116//2 118//2 119//2
f 117//2 118//2 116//2
f 131//2 139//2 140//2
f 141//2 131//2 140//2
f 142//2 131//2 141//2
f 132//2 139//2 131//2
f 135//2 139//2 132//2
f 133//2 135//2 132//2
f 134//2 135//2 133//2
f 136//2 139//2 135//2
f 137//2 139//2 136//2
f 138//2 139//2 137//2
s 1
f 146//3 143//4 144//4
f 148//3 145//3 146//3
f 150//4 147//3 148//3
f 152//4 149//4 150//4
f 154//3 151//4 152//4
f 156//3 153//3 154//3
f 158//4 155//3 156//3
f 160//5 157//4 158//4
f 160//5 161//6 159//5
f 164//3 161//6 162//6
f 166//4 163//3 164//3
f 144//4 165//4 166//4
f 170//7 167//8 168//8
f 172//9 169//7 170//7
f 172//9 173//10 171//9
f 176//11 173//10 174//10
f 176//11 177//12 175//11
f 180//13 177//12 178//12
f 182//4 179//13 180//13
f 184//4 181//4 182//4
f 186//5 183//4 184//4
f 186//5 187//6 185//5
f 190//14 187//6 188//6
f 168//8 189//14 190//14
f 194//15 191//16 192//16
f 196//17 193//15 194//15
f 198//4 195//17 196//17
f 200//3 197//4 198//4
f 192//16 199//3 200//3
f 204//7 201//8 202//8
f 206//9 203//7 204//7
f 206//9 207//10 205//9
f 210//11 207//10 208//10
f 212//12 209//11 210//11
f 214//13 211//12 212//12
f 216//4 213//13 214//13
f 218//4 215//4 216//4
f 220//5 217//4 218//4
f 220//5 221//6 219//5
f 224//14 221//6 222//6
f 202//8 223//14 224//14
f 228//15 225//16 226//16
f 230//17 227//15 228//15
f 232//4 229//17 230//17
f 234//3 231//4 232//4
f 226//16 233//3 234//3
f 238//18 235//19 236//19
f 240//20 237//18 238//18
f 240//20 241//21 239//20
f 236//19 241//21 242//21
f 246//22 243//23 244//23
f 248//24 245//22 246//22
f 250//25 247//24 248//24
f 244//23 249//25 250//25
f 254//7 251//8 252//8
f 256//9 253//7 254//7
f 258//10 255//9 256//9
f 260//11 257//10 258//10
f 260//11 261//12 259//11
f 264//13 261//12 262//12
f 266//4 263//13 264//13
f 268//4 265//4 266//4
f 270//5 267//4 268//4
f 270//5 271//6 269//5
f 274//14 271//6 272//6
f 252//8 273//14 274//14
f 278//15 275//16 276//16
f 280//17 277//15 278//15
f 282//4 279//17 280//17
f 284//3 281//4 282//4
f 276//16 283//3 284//3
f 146//3 145//3 143//4
f 148//3 147//3 145//3
f 150//4 149//4 147//3
f 152//4 151//4 149//4
f 154//3 153//3 151//4
f 156//3 155//3 153//3
f 158//4 157//4 155//3
f 160//5 159//5 157//4
f 160//5 162//6 161//6
f 164//3 163//3 161//6
f 166//4 165//4 163//3
f 144//4 143//4 165//4
f 170//7 169//7 167//8
f 172//9 171//9 169//7
f 172//9 174//10 173//10
f 176//11 175//11 173//10
f 176//11 178//12 177//12
f 180//13 179//13 177//12
f 182//4 181//4 179//13
f 184//4 183//4 181//4
f 186//5 185//5 183//4
f 186//5 188//6 187//6
f 190//14 189//14 187//6
f 168//8 167//8 189//14
f 194//15 193//15 191//16
f 196//17 195//17 193//15
f 198//4 197//4 195//17
f 200//3 199//3 197//4
f 192//16 191//16 199//3
f 204//7 203//7 201//8
f 206//9 205//9 203//7
f 206//9 208//10 207//10
f 210//11 209//11 207//10
f 212//12 211//12 209//11
f 214//13 213//13 211//12
f 216//4 215//4 213//13
f 218//4 217//4 215//4
f 220//5 219//5 217//4
f 220//5 222//6 221//6
f 224//14 223//14 221//6
f 202//8 201//8 223//14
f 228//15 227//15 225//16
f 230//17 229//17 227//15
f 232//4 231//4 229//17
f 234//3 233//3 231//4
f 226//16 225//16 233//3
f 238//18 237//18 235//19
f 240//20 239//20 237//18
f 240//20 242//21 241//21
f 236//19 235//19 241//21
f 246//22 245//22 243//23
f 248//24 247//24 245//22
f 250//25 249//25 247//24
f 244//23 243//23 249//25
f 254//7 253//7 251//8
f 256//9 255//9 253//7
f 258//10 257//10 255//9
f 260//11 259//11 257//10
f 260//11 262//12 261//12
f 264//13 263//13 261//12
f 266//4 265//4 263//13
f 268//4 267//4 265//4
f 270//5 269//5 267//4
f 270//5 272//6 271//6
f 274//14 273//14 271//6
f 252//8 251//8 273//14
f 278//15 277//15 275//16
f 280//17 279//17 277//15
f 282//4 281//4 279//17
f 284//3 283//3 281//4
f 276//16 275//16 283//3
