# Blender v2.78 (sub 0) OBJ File: 'room_base.blend'
# www.blender.org
mtllib room_base.mtl
v -2.000000 -2.000000 0.000000
v 2.000000 -2.000000 0.000000
v -2.000000 2.000000 0.000000
v 2.000000 2.000000 0.000000
v -2.000000 3.000000 1.000000
v 2.000000 3.000000 1.000000
v -2.000000 -3.000000 1.000000
v 2.000000 -3.000000 1.000000
v 3.000000 -2.000000 1.000000
v 3.000000 2.000000 1.000000
v -3.000000 -2.000000 1.000000
v -3.000000 2.000000 1.000000
v 2.000000 -0.666667 0.000000
v 2.000000 0.666667 0.000000
v 3.000000 -0.666667 1.000000
v 3.000000 0.666667 1.000000
v 0.666667 2.000000 0.000000
v -0.666667 2.000000 0.000000
v 0.666667 3.000000 1.000000
v -0.666667 3.000000 1.000000
v -0.666667 -2.000000 0.000000
v 0.666667 -2.000000 0.000000
v -0.666667 -3.000000 1.000000
v 0.666667 -3.000000 1.000000
v -2.000000 0.666667 0.000000
v -2.000000 -0.666667 0.000000
v -3.000000 0.666667 1.000000
v -3.000000 -0.666667 1.000000
vn 0.0000 0.0000 1.0000
vn 0.0000 -0.7071 0.7071
vn 0.0000 0.7071 0.7071
vn -0.7071 0.0000 0.7071
vn 0.7071 0.0000 0.7071
vn 0.5774 -0.5774 0.5774
vn -0.5774 -0.5774 0.5774
vn -0.5774 0.5774 0.5774
vn 0.5774 0.5774 0.5774
usemtl None
s off
f 14//1 17//1 25//1
f 4//2 19//2 17//2
f 1//3 23//3 21//3
f 2//4 15//4 13//4
f 3//5 27//5 25//5
f 3//6 5//6 12//6
f 4//7 10//7 6//7
f 2//8 8//8 9//8
f 1//9 11//9 7//9
f 14//4 10//4 4//4
f 18//2 5//2 3//2
f 22//3 8//3 2//3
f 26//5 11//5 1//5
f 26//1 1//1 21//1
f 22//1 2//1 13//1
f 26//1 21//1 22//1
f 18//1 3//1 25//1
f 25//1 26//1 22//1
f 22//1 13//1 14//1
f 14//1 4//1 17//1
f 17//1 18//1 25//1
f 25//1 22//1 14//1
f 4//2 6//2 19//2
f 1//3 7//3 23//3
f 2//4 9//4 15//4
f 3//5 12//5 27//5
f 14//4 16//4 10//4
f 18//2 20//2 5//2
f 22//3 24//3 8//3
f 26//5 28//5 11//5
