# Blender v2.78 (sub 0) OBJ File: ''
# www.blender.org
v 1.000000 1.000000 0.000000
v 1.000000 -1.000000 0.000000
v -1.000000 -1.000000 0.000000
v -1.000000 1.000000 0.000000
v 1.000000 0.999999 1.000000
v 0.999999 -1.000001 1.000000
v -1.000000 -1.000000 1.000000
v -1.000000 1.000000 1.000000
v 1.000000 0.333333 1.000000
v 1.000000 -0.333334 1.000000
v 0.333334 1.000000 1.000000
v -0.333333 1.000000 1.000000
v 0.333333 -1.000000 1.000000
v -0.333334 -1.000000 1.000000
v -1.000000 -0.333333 1.000000
v -1.000000 0.333333 1.000000
v 0.333333 0.333333 1.000000
v 0.333333 -0.333334 1.000000
v -0.333333 0.333333 1.000000
v -0.333334 -0.333333 1.000000
v 0.333333 0.333333 2.000000
v 0.333333 -0.333334 2.000000
v -0.333333 0.333333 2.000000
v -0.333334 -0.333333 2.000000
vn 0.0000 0.0000 -1.0000
vn 0.0000 0.0000 1.0000
vn 1.0000 -0.0000 0.0000
vn -0.0000 -1.0000 0.0000
vn -1.0000 0.0000 -0.0000
vn 0.0000 1.0000 0.0000
s off
f 2//1 4//1 1//1
f 15//2 14//2 20//2
f 10//3 6//3 2//3
f 14//4 7//4 3//4
f 16//5 8//5 4//5
f 4//6 8//6 12//6
f 18//2 6//2 10//2
f 20//2 13//2 18//2
f 11//2 9//2 5//2
f 17//2 10//2 9//2
f 12//2 17//2 11//2
f 19//6 21//6 17//6
f 8//2 19//2 12//2
f 19//2 15//2 20//2
f 23//2 22//2 21//2
f 17//3 22//3 18//3
f 18//4 24//4 20//4
f 20//5 23//5 19//5
f 2//1 3//1 4//1
f 15//2 7//2 14//2
f 2//3 1//3 9//3
f 9//3 10//3 2//3
f 1//3 5//3 9//3
f 3//4 2//4 13//4
f 13//4 14//4 3//4
f 2//4 6//4 13//4
f 4//5 3//5 15//5
f 15//5 16//5 4//5
f 3//5 7//5 15//5
f 11//6 5//6 1//6
f 1//6 4//6 12//6
f 12//6 11//6 1//6
f 18//2 13//2 6//2
f 20//2 14//2 13//2
f 11//2 17//2 9//2
f 17//2 18//2 10//2
f 12//2 19//2 17//2
f 19//6 23//6 21//6
f 8//2 16//2 19//2
f 19//2 16//2 15//2
f 23//2 24//2 22//2
f 17//3 21//3 22//3
f 18//4 22//4 24//4
f 20//5 24//5 23//5
