# Blender v2.78 (sub 0) OBJ File: 'waypoint.blend'
# www.blender.org
mtllib waypoint.mtl
v -1.000000 -1.000000 0.000000
v -1.000000 -1.000000 0.200000
v -1.000000 1.000000 0.000000
v -1.000000 1.000000 0.200000
v 1.000000 -1.000000 0.000000
v 1.000000 -1.000000 0.200000
v 1.000000 1.000000 0.000000
v 1.000000 1.000000 0.200000
v -0.100000 -0.100000 0.200000
v -0.100000 0.100000 0.200000
v 0.100000 0.100000 0.200000
v 0.100000 -0.100000 0.200000
v -0.100000 -0.100000 4.000000
v -0.100000 0.100000 4.000000
v 0.100000 0.100000 4.000000
v 0.100000 -0.100000 4.000000
v 0.100000 0.100000 3.050000
v 0.100000 -0.100000 3.050000
v -0.100000 -0.100000 3.050000
v -0.100000 0.100000 3.050000
v -0.100000 -0.045000 3.952500
v -0.100000 0.045000 3.952500
v -0.100000 -0.045000 3.097500
v -0.100000 0.045000 3.097500
v -1.000000 -0.045000 3.525000
v -1.000000 0.045000 3.525000
vn -1.0000 0.0000 0.0000
vn 0.0000 1.0000 0.0000
vn 1.0000 0.0000 0.0000
vn 0.0000 -1.0000 0.0000
vn 0.0000 0.0000 -1.0000
vn 0.0000 0.0000 1.0000
vn -0.4291 0.0000 0.9033
vn -0.4291 0.0000 -0.9033
usemtl None
s off
f 2//1 3//1 1//1
f 4//2 7//2 3//2
f 8//3 5//3 7//3
f 6//4 1//4 5//4
f 7//5 1//5 3//5
f 4//6 11//6 8//6
f 17//3 16//3 18//3
f 8//6 12//6 6//6
f 2//6 10//6 4//6
f 6//6 9//6 2//6
f 14//6 16//6 15//6
f 19//1 24//1 20//1
f 18//4 13//4 19//4
f 20//2 15//2 17//2
f 10//2 17//2 11//2
f 12//4 19//4 9//4
f 9//1 20//1 10//1
f 11//3 18//3 12//3
f 22//2 24//2 26//2
f 13//1 23//1 19//1
f 14//1 21//1 13//1
f 20//1 22//1 14//1
f 22//7 25//7 21//7
f 23//8 26//8 24//8
f 23//4 21//4 25//4
f 2//1 4//1 3//1
f 4//2 8//2 7//2
f 8//3 6//3 5//3
f 6//4 2//4 1//4
f 7//5 5//5 1//5
f 4//6 10//6 11//6
f 17//3 15//3 16//3
f 8//6 11//6 12//6
f 2//6 9//6 10//6
f 6//6 12//6 9//6
f 14//6 13//6 16//6
f 19//1 23//1 24//1
f 18//4 16//4 13//4
f 20//2 14//2 15//2
f 10//2 20//2 17//2
f 12//4 18//4 19//4
f 9//1 19//1 20//1
f 11//3 17//3 18//3
f 13//1 21//1 23//1
f 14//1 22//1 21//1
f 20//1 24//1 22//1
f 22//7 26//7 25//7
f 23//8 25//8 26//8
