# Blender v2.78 (sub 0) OBJ File: 'waypoint.blend'
# www.blender.org
v -1.000000 -1.000000 0.000000
v -1.000000 -1.000000 0.200000
v -1.000000 1.000000 0.000000
v -1.000000 1.000000 0.200000
v 1.000000 -1.000000 0.000000
v 1.000000 -1.000000 0.200000
v 1.000000 1.000000 0.000000
v 1.000000 1.000000 0.200000
v -0.100000 -0.100000 0.200000
v -0.100000 0.100000 0.200000
v 0.100000 0.100000 0.200000
v 0.100000 -0.100000 0.200000
v -0.100000 -0.100000 4.000000
v -0.100000 0.100000 4.000000
v 0.100000 0.100000 4.000000
v 0.100000 -0.100000 4.000000
v 0.100000 0.100000 3.050000
v 0.100000 -0.100000 3.050000
v -0.100000 -0.100000 3.050000
v -0.100000 0.100000 3.050000
v -0.100000 -0.045000 3.952500
v -0.100000 0.045000 3.952500
v -0.100000 -0.045000 3.097500
v -0.100000 0.045000 3.097500
v -1.000000 -0.045000 3.525000
v -1.000000 0.045000 3.525000
vt 0.7050 0.8429
vt 0.7471 0.4214
vt 0.7471 0.8429
vt 0.7893 0.8429
vt 0.8314 0.4214
vt 0.8314 0.8429
vt 0.3429 0.8429
vt 0.3850 0.4214
vt 0.3850 0.8429
vt 0.7893 0.4214
vt 0.7471 0.4214
vt 0.8314 0.0000
vt 0.4203 0.4214
vt 0.4203 0.0000
vt 0.4203 0.0000
vt 0.1891 0.1896
vt 0.0000 0.0000
vt 1.0000 0.6005
vt 0.9579 0.8007
vt 0.9579 0.6005
vt 0.1891 0.2318
vt 0.0000 0.4214
vt 0.4203 0.4214
vt 0.2312 0.1896
vt 0.2312 0.2318
vt 0.1627 0.6532
vt 0.2048 0.6111
vt 0.2048 0.6532
vt 0.8314 0.2002
vt 0.8620 0.1902
vt 0.8736 0.2002
vt 0.8736 0.2002
vt 0.9157 0.0000
vt 0.9157 0.2002
vt 0.9157 0.2002
vt 0.9579 0.0000
vt 0.9579 0.2002
vt 0.9157 0.8007
vt 0.9579 0.8007
vt 0.8736 0.8007
vt 0.9157 0.8007
vt 0.8314 0.8007
vt 0.8736 0.8007
vt 1.0000 0.0000
vt 0.9579 0.0000
vt 0.0000 0.4987
vt 0.1627 0.4214
vt 0.1627 0.6314
vt 0.8314 0.0000
vt 0.8430 0.1902
vt 0.8736 0.0000
vt 0.8430 0.0100
vt 0.8620 0.0100
vt 0.7050 0.4214
vt 0.6860 0.6171
vt 0.6860 0.4214
vt 0.3850 0.6262
vt 0.4040 0.4214
vt 0.4040 0.6262
vt 0.3429 0.6111
vt 0.1627 0.6111
vt 0.2528 0.4214
vt 0.7050 0.4214
vt 0.7893 0.4214
vt 0.3429 0.4214
vt 0.7893 0.8429
vt 0.8314 0.4214
vt 1.0000 0.8007
vt 0.1627 0.6111
vt 0.8736 0.0000
vt 0.9157 0.0000
vt 0.7050 0.6171
vt 0.3850 0.4214
vn -1.0000 0.0000 0.0000
vn 0.0000 1.0000 0.0000
vn 1.0000 0.0000 0.0000
vn 0.0000 -1.0000 0.0000
vn 0.0000 0.0000 -1.0000
vn 0.0000 0.0000 1.0000
vn -0.4291 0.0000 0.9033
vn -0.4291 0.0000 -0.9033
s off
f 2/1/1 3/2/1 1/3/1
f 4/4/2 7/5/2 3/6/2
f 8/7/3 5/8/3 7/9/3
f 6/10/4 1/3/4 5/11/4
f 7/12/5 1/13/5 3/14/5
f 4/15/6 11/16/6 8/17/6
f 17/18/3 16/19/3 18/20/3
f 8/17/6 12/21/6 6/22/6
f 2/23/6 10/24/6 4/15/6
f 6/22/6 9/25/6 2/23/6
f 14/26/6 16/27/6 15/28/6
f 19/29/1 24/30/1 20/31/1
f 18/32/4 13/33/4 19/34/4
f 20/35/2 15/36/2 17/37/2
f 10/38/2 17/37/2 11/39/2
f 12/40/4 19/34/4 9/41/4
f 9/42/1 20/31/1 10/43/1
f 11/44/3 18/20/3 12/45/3
f 22/46/2 24/47/2 26/48/2
f 13/49/1 23/50/1 19/29/1
f 14/51/1 21/52/1 13/49/1
f 20/31/1 22/53/1 14/51/1
f 22/54/7 25/55/7 21/56/7
f 23/57/8 26/58/8 24/59/8
f 23/60/4 21/61/4 25/62/4
f 2/1/1 4/63/1 3/2/1
f 4/4/2 8/64/2 7/5/2
f 8/7/3 6/65/3 5/8/3
f 6/10/4 2/66/4 1/3/4
f 7/12/5 5/67/5 1/13/5
f 4/15/6 10/24/6 11/16/6
f 17/18/3 15/68/3 16/19/3
f 8/17/6 11/16/6 12/21/6
f 2/23/6 9/25/6 10/24/6
f 6/22/6 12/21/6 9/25/6
f 14/26/6 13/69/6 16/27/6
f 19/29/1 23/50/1 24/30/1
f 18/32/4 16/70/4 13/33/4
f 20/35/2 14/71/2 15/36/2
f 10/38/2 20/35/2 17/37/2
f 12/40/4 18/32/4 19/34/4
f 9/42/1 19/29/1 20/31/1
f 11/44/3 17/18/3 18/20/3
f 13/49/1 21/52/1 23/50/1
f 14/51/1 22/53/1 21/52/1
f 20/31/1 24/30/1 22/53/1
f 22/54/7 26/72/7 25/55/7
f 23/57/8 25/73/8 26/58/8
