# Blender v2.78 (sub 0) OBJ File: 'knight.blend'
# www.blender.org
v 0.141421 0.152513 0.863173
v 0.282843 0.152513 0.863173
v -0.282843 0.152513 0.863173
v 0.141421 0.081803 0.792462
v 0.282843 0.011092 1.004594
v -0.282843 0.011092 1.004594
v 0.000000 0.635356 1.346016
v 0.282843 0.435356 1.146016
v -0.282843 0.435356 1.146016
v 0.000000 0.493935 1.487437
v 0.282843 0.293935 1.287437
v -0.282843 0.293935 1.287437
v 0.282843 -0.130329 0.580330
v 0.000000 -0.330329 0.380330
v -0.282843 -0.130329 0.580330
v 0.282843 -0.271751 0.721752
v 0.000000 -0.471751 0.521752
v -0.282843 -0.271751 0.721752
v 0.000000 -1.403122 2.418808
v 0.070711 0.011092 1.004594
v -0.070711 0.011092 1.004594
v 0.070711 -0.130329 0.863173
v 0.000000 0.252513 1.246016
v 0.070711 0.152513 1.146016
v -0.070711 0.152513 1.146016
v 0.000000 -0.230329 0.763173
v -0.070711 -0.130329 0.863173
v 0.070711 -1.049568 2.065255
v -0.070711 -1.049568 2.065255
v 0.070711 -1.190990 1.923833
v 0.000000 -0.808147 2.306676
v 0.070711 -0.908147 2.206676
v -0.070711 -0.908147 2.206676
v 0.000000 -1.290990 1.823833
v -0.070711 -1.190990 1.923833
v -0.141421 0.081803 0.792462
v 0.000000 0.031803 0.742462
v -0.141421 0.223224 0.933884
v 0.000000 0.273224 0.983884
v -0.141421 0.152513 0.863173
v 0.141421 0.223224 0.933884
v 0.141421 0.718199 0.297488
v 0.141421 0.788909 0.368198
v -0.000000 0.597488 0.176777
v 0.000000 0.668199 0.247488
v -0.141421 0.788909 0.368198
v -0.000000 0.838909 0.418198
v -0.141421 0.647488 0.226777
v -0.141421 0.718199 0.297488
v -0.000000 0.768199 0.347488
v 0.141421 0.647488 0.226777
vn -1.0000 0.0000 0.0000
vn 1.0000 0.0000 0.0000
vn -0.4472 0.6325 0.6325
vn -0.0000 0.7071 -0.7071
vn 0.0000 -0.7071 0.7071
vn 0.7071 0.5000 0.5000
vn -0.7071 0.5000 0.5000
vn 0.7071 -0.5000 -0.5000
vn -0.7071 -0.5000 -0.5000
vn -0.8944 0.3162 0.3162
vn 0.8944 -0.3162 -0.3162
vn 0.8944 0.3162 0.3162
vn -0.9901 -0.0990 0.0990
vn 0.8554 0.0959 0.5090
vn 0.9901 -0.0990 0.0990
vn -0.8554 -0.5090 -0.0959
vn -0.8944 -0.3162 -0.3162
vn 0.8554 -0.5090 -0.0959
vn -0.8554 0.0959 0.5090
vn 0.4472 0.6325 0.6325
vn -0.4472 -0.6325 -0.6325
vn 0.4472 -0.6325 -0.6325
s off
f 40//1 48//1 36//1
f 4//2 42//2 1//2
f 1//2 43//2 41//2
f 39//3 46//3 38//3
f 2//4 41//4 8//4
f 9//4 39//4 38//4
f 5//5 22//5 16//5
f 5//2 13//2 2//2
f 6//5 27//5 21//5
f 2//2 11//2 5//2
f 7//6 11//6 8//6
f 9//7 10//7 7//7
f 12//5 23//5 10//5
f 13//4 37//4 4//4
f 3//4 38//4 40//4
f 3//1 12//1 9//1
f 13//8 17//8 14//8
f 14//9 18//9 15//9
f 16//5 26//5 17//5
f 2//4 4//4 1//4
f 5//5 24//5 20//5
f 3//1 18//1 6//1
f 20//2 30//2 22//2
f 25//10 31//10 23//10
f 26//11 30//11 34//11
f 21//1 35//1 29//1
f 24//12 31//12 32//12
f 18//5 26//5 27//5
f 11//5 23//5 24//5
f 6//5 25//5 12//5
f 29//13 35//13 19//13
f 32//14 31//14 19//14
f 28//15 32//15 19//15
f 33//13 29//13 19//13
f 35//16 34//16 19//16
f 27//17 34//17 35//17
f 25//1 29//1 33//1
f 24//2 28//2 20//2
f 8//4 39//4 7//4
f 34//18 30//18 19//18
f 31//19 33//19 19//19
f 30//15 28//15 19//15
f 15//4 37//4 14//4
f 3//4 36//4 15//4
f 41//20 47//20 39//20
f 45//4 51//4 44//4
f 50//4 43//4 42//4
f 50//4 46//4 47//4
f 45//4 50//4 42//4
f 45//4 48//4 49//4
f 36//21 44//21 37//21
f 40//1 46//1 49//1
f 37//22 51//22 4//22
f 40//1 49//1 48//1
f 4//2 51//2 42//2
f 1//2 42//2 43//2
f 39//3 47//3 46//3
f 2//4 1//4 41//4
f 9//4 7//4 39//4
f 5//5 20//5 22//5
f 5//2 16//2 13//2
f 6//5 18//5 27//5
f 2//2 8//2 11//2
f 7//6 10//6 11//6
f 9//7 12//7 10//7
f 12//5 25//5 23//5
f 13//4 14//4 37//4
f 3//4 9//4 38//4
f 3//1 6//1 12//1
f 13//8 16//8 17//8
f 14//9 17//9 18//9
f 16//5 22//5 26//5
f 2//4 13//4 4//4
f 5//5 11//5 24//5
f 3//1 15//1 18//1
f 20//2 28//2 30//2
f 25//10 33//10 31//10
f 26//11 22//11 30//11
f 21//1 27//1 35//1
f 24//12 23//12 31//12
f 18//5 17//5 26//5
f 11//5 10//5 23//5
f 6//5 21//5 25//5
f 27//17 26//17 34//17
f 25//1 21//1 29//1
f 24//2 32//2 28//2
f 8//4 41//4 39//4
f 15//4 36//4 37//4
f 3//4 40//4 36//4
f 41//20 43//20 47//20
f 45//4 42//4 51//4
f 50//4 47//4 43//4
f 50//4 49//4 46//4
f 45//4 49//4 50//4
f 45//4 44//4 48//4
f 36//21 48//21 44//21
f 40//1 38//1 46//1
f 37//22 44//22 51//22
